<?xml version="1.0" encoding="UTF-8"?>
<svg width="59px" height="65px" viewBox="0 0 59 65" version="1.1" xmlns="http://www.w3.org/2000/svg" xmlns:xlink="http://www.w3.org/1999/xlink">
    <!-- Generator: Sketch 49.3 (51167) - http://www.bohemiancoding.com/sketch -->
    <title>light-bulb</title>
    <desc>Created with Sketch.</desc>
    <defs></defs>
    <g id="Page-1" stroke="none" stroke-width="1" fill="none" fill-rule="evenodd">
        <g id="Desktop-HD-Copy-8" transform="translate(-750.000000, -1467.000000)" fill="#E94280" fill-rule="nonzero">
            <g id="Group-18" transform="translate(0.000000, 1178.000000)">
                <g id="2">
                    <g id="Group-3" transform="translate(150.000000, 80.000000)">
                        <g id="Group-19" transform="translate(0.000000, 84.000000)">
                            <g id="Group-26" transform="translate(600.000000, 125.000000)">
                                <g id="light-bulb">
                                    <path d="M43.1649058,36.7014391 C45.5582574,33.7820464 46.8232662,30.2974673 46.8232662,26.6242549 C46.8232662,22.1205994 44.9137986,17.8987523 41.4465546,14.7363623 C37.9799276,11.5746857 33.3852664,9.86728326 28.5160391,9.9323489 C23.7973604,9.99413273 19.3517051,11.7456257 15.9979895,14.8642105 C12.6444282,17.9826527 10.773986,22.104333 10.7311043,26.469724 C10.6943927,30.21214 11.9668055,33.7593591 14.4107513,36.7281217 C18.3782299,41.5475454 20.5633432,47.4509683 20.5633432,53.3509668 L20.5633432,59.8067343 C20.5633432,62.670336 23.081792,65 26.1774464,65 L31.3994447,65 C34.4950991,65 37.0135479,62.6701934 37.0135479,59.8067343 L37.0135479,53.3513949 C37.0137022,47.3861881 39.1253923,41.628592 43.1649058,36.7014391 Z M16.2515775,35.4315176 C14.1216858,32.8443021 13.0127786,29.7521145 13.0447084,26.4892722 C13.1216794,18.6507171 20.0766827,12.1833919 28.5487402,12.0725234 C32.7988058,12.0197289 36.8000652,13.5043957 39.8219878,16.2606962 C42.8448359,19.0175675 44.5095079,22.6981996 44.5095079,26.6243976 C44.5095079,29.8265975 43.4070792,32.863993 41.3213032,35.4082594 C37.0650676,40.5999556 34.7733671,46.656768 34.6795828,52.9488725 L22.8738623,52.9488725 C22.7771472,46.7178383 20.4340813,40.5120599 16.2515775,35.4315176 Z M22.8771016,59.0814521 L22.8771016,58.2150517 L34.6999438,59.4679934 L34.6999438,59.8067343 C34.6999438,59.9850941 34.6798913,60.1588878 34.6481157,60.328829 L22.8771016,59.0814521 Z M22.8771016,56.0607511 L22.8771016,55.0891898 L34.6999438,55.0891898 L34.6999438,57.3136928 L22.8771016,56.0607511 Z M26.1774464,62.8598255 C24.9346497,62.8598255 23.8510396,62.2205841 23.2881793,61.2792725 L33.2476749,62.3347343 C32.7199837,62.6659127 32.0838544,62.8596828 31.399599,62.8596828 L26.1774464,62.8596828 L26.1774464,62.8598255 Z" id="Shape"></path>
                                    <path d="M17.5485423,28.4118181 C17.4768195,27.7826469 17.4426133,27.1363238 17.4471496,26.4909624 C17.4518085,25.8270065 17.0439085,25.2839155 16.536087,25.2778242 C16.0316984,25.2720535 15.6128867,25.8050456 15.6082278,26.4690016 C15.6028333,27.2400368 15.6436601,28.0129957 15.7296048,28.7665584 C15.7976494,29.3631891 16.1899789,29.7916667 16.6379701,29.7916667 C16.683088,29.7916667 16.7288189,29.7873386 16.774795,29.7783619 C17.2769767,29.6802593 17.6234527,29.0685606 17.5485423,28.4118181 Z" id="Shape"></path>
                                    <path d="M25.0842751,45.1388889 C25.2139445,45.1388889 25.3459532,45.1203341 25.4759568,45.0815517 C26.1334941,44.8847497 26.4912545,44.2400485 26.2750275,43.641734 C24.8860949,39.7974042 22.8160638,36.2157304 20.1224167,32.9964825 C19.6772631,32.4643263 19.2827407,31.8974941 18.9500452,31.3114989 C18.6322216,30.7518148 17.8760954,30.532808 17.2611686,30.8220795 C16.6464088,31.111351 16.4056181,31.7995494 16.7234417,32.3592335 C17.12281,33.0621845 17.595368,33.7415619 18.128416,34.3786587 C20.652624,37.3954775 22.5924844,40.7517567 23.8940239,44.3542666 C24.0674734,44.8344086 24.5575768,45.1388889 25.0842751,45.1388889 Z" id="Shape"></path>
                                    <path d="M41.2395344,30.797682 C40.6470819,30.522055 39.9597809,30.8173576 39.7046713,31.4570679 C39.334622,32.3850177 38.8557073,33.2700847 38.2813212,34.0877164 C37.8914924,34.6426701 37.9922592,35.4338995 38.5062164,35.8548234 C38.7172504,36.0276999 38.9651958,36.1111111 39.2111166,36.1111111 C39.5641896,36.1111111 39.9130575,35.9390755 40.1427809,35.611821 C40.8310163,34.6319073 41.4054025,33.5697597 41.8502091,32.4549755 C42.1054745,31.8152652 41.8321427,31.0731408 41.2395344,30.797682 Z" id="Shape"></path>
                                    <path d="M30.4652118,16.6322791 C37.0852285,16.6322791 42.4709559,21.5393004 42.4709559,27.5707228 C42.4709559,27.9136294 42.4536662,28.2591615 42.4195672,28.5976924 C42.3590534,29.1993469 42.8450848,29.73172 43.5054535,29.7869993 C43.5427544,29.7900623 43.579735,29.7916667 43.6165556,29.7916667 C44.2301782,29.7916667 44.7536706,29.3653306 44.8108225,28.7976605 C44.8514852,28.3929111 44.8722968,27.9801396 44.8722968,27.5707228 C44.8722968,20.3329284 38.4093279,14.4444444 30.4652118,14.4444444 C29.8021216,14.4444444 29.2645414,14.9342277 29.2645414,15.5383617 C29.2645414,16.1424958 29.8021216,16.6322791 30.4652118,16.6322791 Z" id="Shape"></path>
                                    <path d="M30.2400261,8.125 C30.7787538,8.125 31.2155108,7.64633772 31.2155108,7.05592105 L31.2155108,1.06907895 C31.2155108,0.478662281 30.7787538,0 30.2400261,0 C29.7012984,0 29.2645414,0.478662281 29.2645414,1.06907895 L29.2645414,7.05592105 C29.2645414,7.64633772 29.7012984,8.125 30.2400261,8.125 Z" id="Shape"></path>
                                    <path d="M18.8052393,10.3057595 C19.0689456,10.644211 19.5470318,10.8333333 20.0387777,10.8333333 C20.2800974,10.8333333 20.524832,10.7877752 20.7488875,10.6918783 C21.4294014,10.4006721 21.6627531,9.75568777 21.2698497,9.25131477 L17.287695,4.13868524 C16.8946019,3.63417164 16.0245609,3.46136026 15.3440469,3.75256641 C14.6635329,4.04377257 14.4301813,4.68875694 14.8230847,5.19312993 L18.8052393,10.3057595 Z" id="Shape"></path>
                                    <path d="M55.032596,39.0702953 L49.5081879,35.3850372 C48.96304,35.0212518 48.2661076,35.2372055 47.9515993,35.8671581 C47.6369389,36.4969352 47.8236688,37.3022844 48.3688167,37.6658942 L53.8932248,41.3511523 C54.0726618,41.4708924 54.2685078,41.5277778 54.4619229,41.5277778 C54.8557421,41.5277778 55.2387738,41.2914577 55.4498135,40.8690313 C55.7644738,40.2392542 55.577592,39.4339051 55.032596,39.0702953 Z" id="Shape"></path>
                                    <path d="M4.47200216,15.0964497 L9.99638688,18.7817078 C10.175823,18.901448 10.3716682,18.9583333 10.5650825,18.9583333 C10.9589,18.9583333 11.3419301,18.7220133 11.5529689,18.2995869 C11.8676279,17.6698098 11.6808988,16.8644606 11.1357533,16.5008508 L5.61136852,12.8155928 C5.0663749,12.4518074 4.36944551,12.6677611 4.05478652,13.2977137 C3.74012753,13.9274908 3.9268566,14.7326644 4.47200216,15.0964497 Z" id="Shape"></path>
                                    <path d="M57.3739035,26.1805556 L50.9048996,26.1805556 C50.2669326,26.1805556 49.7497204,26.5847593 49.7497204,27.0833333 C49.7497204,27.5819074 50.2669326,27.9861111 50.9048996,27.9861111 L57.3739035,27.9861111 C58.0118705,27.9861111 58.5290828,27.5819074 58.5290828,27.0833333 C58.5290828,26.5847593 58.0120245,26.1805556 57.3739035,26.1805556 Z" id="Shape"></path>
                                    <path d="M8.77936242,27.0833333 C8.77936242,26.5847593 8.26215015,26.1805556 7.62418315,26.1805556 L1.15517927,26.1805556 C0.517212263,26.1805556 0,26.5847593 0,27.0833333 C0,27.5819074 0.517212263,27.9861111 1.15517927,27.9861111 L7.62418315,27.9861111 C8.26230418,27.9861111 8.77936242,27.5819074 8.77936242,27.0833333 Z" id="Shape"></path>
                                    <path d="M48.9394616,18.9583333 C49.1327255,18.9583333 49.3287243,18.9014469 49.508162,18.7817046 L55.0325936,15.0963786 C55.5775919,14.7327622 55.7644745,13.9273982 55.4498128,13.2976095 C55.1351511,12.6678208 54.4380639,12.4518632 53.8932176,12.8154797 L48.3687859,16.5008056 C47.8237877,16.8644221 47.6369051,17.6697861 47.9515668,18.2995747 C48.1626073,18.722009 48.5457926,18.9583333 48.9394616,18.9583333 Z" id="Shape"></path>
                                    <path d="M9.9964055,35.3849614 L4.47197386,39.0702649 C3.92697561,39.4338792 3.74009302,40.2392383 4.05475468,40.8690232 C4.26579526,41.2914548 4.6488286,41.5277778 5.04264947,41.5277778 C5.23591342,41.5277778 5.43191223,41.4708917 5.6113499,41.3511501 L11.1357815,37.6658465 C11.6807798,37.3022322 11.8676624,36.4968731 11.5530007,35.8670883 C11.238491,35.2371278 10.5410999,35.0213471 9.9964055,35.3849614 Z" id="Shape"></path>
                                    <path d="M39.7311647,10.6918783 C39.9552202,10.7877752 40.1997651,10.8333333 40.4412745,10.8333333 C40.9330204,10.8333333 41.4112963,10.6440704 41.6748129,10.3057595 L45.6569675,5.19312993 C46.0498709,4.68875694 45.8165193,4.04377257 45.1360053,3.75256641 C44.455681,3.46136026 43.5852606,3.63417164 43.1923572,4.13868524 L39.2102025,9.25131477 C38.8172991,9.75568777 39.0506508,10.4006721 39.7311647,10.6918783 Z" id="Shape"></path>
                                </g>
                            </g>
                        </g>
                    </g>
                </g>
            </g>
        </g>
    </g>
</svg>