<?xml version="1.0" encoding="UTF-8"?>
<svg width="22px" height="19px" viewBox="0 0 22 19" version="1.1" xmlns="http://www.w3.org/2000/svg" xmlns:xlink="http://www.w3.org/1999/xlink">
    <!-- Generator: Sketch 49.3 (51167) - http://www.bohemiancoding.com/sketch -->
    <title>002-checked copy 7</title>
    <desc>Created with Sketch.</desc>
    <defs></defs>
    <g id="Page-1" stroke="none" stroke-width="1" fill="none" fill-rule="evenodd">
        <g id="Desktop-HD-Copy-8" transform="translate(-150.000000, -1865.000000)" fill="#E94280" fill-rule="nonzero">
            <g id="Group-6" transform="translate(0.000000, 1721.000000)">
                <g id="Group-10" transform="translate(150.000000, 144.000000)">
                    <g id="Group-34">
                        <g id="Group-37">
                            <g id="Group-42">
                                <g id="Group-38">
                                    <g id="Group-39">
                                        <g id="002-checked-copy-7">
                                            <path d="M18.9756958,8.81821271 C18.952784,8.50027316 18.6768719,8.26161807 18.3584696,8.28398143 C18.0404893,8.30689334 17.8013289,8.58322859 17.8241985,8.90121033 C17.8384182,9.0976282 17.8455491,9.29915166 17.8455491,9.5 C17.8455491,14.1018322 14.1017695,17.8456284 9.5,17.8456284 C4.89823048,17.8456284 1.15445089,14.10179 1.15445089,9.5 C1.15445089,4.89821004 4.89823048,1.15441382 9.50004219,1.15441382 C11.3224796,1.15441382 13.0532699,1.73113549 14.5051944,2.82217238 C14.7600935,3.01365342 15.121872,2.96230207 15.3133944,2.70748629 C15.504959,2.45262831 15.4536079,2.09076373 15.198751,1.89928268 C13.5451774,0.65676564 11.5745938,0 9.5,0 C4.26172128,-4.21950299e-05 0,4.26169802 0,9.5 C0,14.738302 4.26172128,19 9.50004219,19 C14.7383631,19 19,14.7383442 19,9.5 C19,9.27155611 18.991772,9.04218393 18.9756958,8.81821271 Z" id="Shape"></path>
                                            <path d="M21.3398854,1.67072188 C20.4596481,0.77642604 19.0273588,0.77642604 18.1471215,1.67072188 L9.80881012,10.1425277 L6.852942,7.13926336 C5.97270465,6.24496752 4.54041535,6.24496752 3.66017801,7.13926336 C2.77994066,8.03360218 2.77994066,9.48883688 3.66017801,10.3831757 L8.75094319,15.5554954 C9.04262122,15.8518461 9.42571567,16 9.80881012,16 C10.1919469,16 10.5750413,15.8518461 10.8667194,15.5554954 L21.3398854,4.91454826 C22.2200382,4.02025242 22.2200382,2.56510368 21.3398854,1.67072188 Z M20.5214948,4.08308996 L10.0482865,14.724123 C9.91630162,14.8582223 9.70140323,14.8582223 9.56941839,14.724123 L4.47865321,9.55176037 C4.04966019,9.11589484 4.04966019,8.40675912 4.47865321,7.97089359 C4.69312857,7.75289635 4.97482314,7.64398369 5.2566023,7.64398369 C5.53838147,7.64398369 5.82011834,7.75293933 6.0345514,7.97089359 L9.07536361,11.0604199 C9.27131033,11.2594627 9.53185348,11.369063 9.80885242,11.369063 C10.0859783,11.369063 10.3465214,11.2594197 10.5424258,11.0603769 L18.9655544,2.50222317 C19.3944205,2.06635764 20.0925018,2.06635764 20.5214948,2.50222317 C20.9504456,2.9380887 20.9504456,3.64722442 20.5214948,4.08308996 Z" id="Shape"></path>
                                        </g>
                                    </g>
                                </g>
                            </g>
                        </g>
                    </g>
                </g>
            </g>
        </g>
    </g>
</svg>