<?xml version="1.0" encoding="UTF-8"?>
<svg width="121px" height="120px" viewBox="0 0 121 120" version="1.1" xmlns="http://www.w3.org/2000/svg" xmlns:xlink="http://www.w3.org/1999/xlink">
    <!-- Generator: Sketch 49.3 (51167) - http://www.bohemiancoding.com/sketch -->
    <title>001-crown</title>
    <desc>Created with Sketch.</desc>
    <defs></defs>
    <g id="Page-1" stroke="none" stroke-width="1" fill="none" fill-rule="evenodd">
        <g id="Desktop-HD-Copy-8" transform="translate(-150.000000, -995.000000)" fill="#E94280" fill-rule="nonzero">
            <g id="Group-17" transform="translate(0.000000, 832.000000)">
                <g id="Group-45" transform="translate(150.000000, 144.000000)">
                    <g id="001-crown" transform="translate(0.000000, 19.000000)">
                        <path d="M119.82639,45.7204131 C118.998465,44.4058971 117.641122,43.5187873 116.1025,43.2868139 C113.883671,42.9520555 111.75938,44.0192747 110.681636,45.8906213 C110.115347,45.5032917 109.467282,45.2347777 108.777148,45.1121901 C106.388621,44.6887915 104.024674,46.1051495 103.278289,48.4074386 L102.449418,50.9633897 C102.002485,50.6665863 101.508283,50.4388563 100.980992,50.3033027 C98.4745273,49.6585392 95.9115758,51.0850343 95.1443921,53.5497519 L94.601502,55.2933244 C94.0111062,54.8946791 93.3356252,54.6221574 92.615711,54.5042848 C90.1714059,54.1046964 87.8410202,55.5194042 87.0743092,57.8683709 L81.4603488,75.0650509 C80.1226223,75.6621939 77.3396314,77.0733655 74.476755,79.5545853 C73.7395874,80.193691 73.6613564,81.3078235 74.3020942,82.0431132 C74.9428321,82.7784029 76.0595737,82.8564346 76.7969777,82.217329 C80.1753278,79.2889003 83.4716654,78.0455794 83.5009724,78.0347351 C83.5082992,78.0321419 83.5149169,78.0283699 83.5222437,78.0257767 C83.5576958,78.0123393 83.5922025,77.9967801 83.6269456,77.9809851 C83.6465625,77.9720268 83.666652,77.9637757 83.6857961,77.9538744 C83.7226663,77.9354863 83.7581184,77.9145049 83.7938069,77.8937593 C83.8098785,77.8843295 83.8264228,77.8758427 83.8420218,77.8657057 C83.8810191,77.8409524 83.9185983,77.8136059 83.9559412,77.7853165 C83.9670496,77.7770654 83.9788669,77.7697573 83.9897389,77.7610347 C84.0372448,77.7233155 84.0830962,77.6837102 84.1272931,77.6405688 L92.0054619,69.9647004 L96.2339537,65.8448147 C96.5546772,65.5322163 96.987902,65.3608295 97.4267992,65.3681376 C97.4267992,65.3681376 97.4270355,65.3681376 97.4272719,65.3681376 C97.8758593,65.373324 98.2956123,65.5524904 98.609009,65.8726326 C98.9406044,66.2111629 99.1010843,66.6597863 99.0850127,67.1051093 C99.0850127,67.1055808 99.0850127,67.1058165 99.0850127,67.106288 C99.077686,67.3043141 99.0356161,67.501633 98.9576215,67.6881075 C98.89948,67.8281403 98.8210126,67.9618079 98.7224558,68.0855742 L85.2726328,84.9713062 C84.7172163,85.6686409 84.7699218,86.6696156 85.3957698,87.3047136 C85.4368942,87.3466763 85.4799094,87.3853385 85.5241064,87.4223505 C85.5392326,87.434845 85.5553043,87.4459251 85.5706669,87.4579481 C85.6004466,87.4812869 85.6302264,87.5043899 85.6611879,87.5251355 C85.6800957,87.5381015 85.6997126,87.5494173 85.7188567,87.5614403 C85.7476911,87.5793569 85.7760528,87.5972736 85.8055962,87.6133043 C85.8266311,87.6248558 85.8481387,87.6352286 85.8691737,87.6458371 C85.898008,87.6602176 85.9268424,87.6741266 85.9563859,87.6868568 C85.9786025,87.6965224 86.0012919,87.7052449 86.0235085,87.7137318 C86.053052,87.7250475 86.0825954,87.7356561 86.1128479,87.7455574 C86.1357736,87.7528655 86.1586993,87.7597021 86.1818613,87.766303 C86.2125865,87.7747898 86.2430753,87.7823337 86.2742731,87.7891703 C86.2974352,87.7943567 86.3203609,87.7993073 86.3432866,87.803315 C86.3751935,87.8089729 86.4071004,87.8134521 86.4392436,87.8174597 C86.461933,87.8202887 86.484386,87.8233534 86.5070754,87.8252393 C86.540873,87.8280683 86.5746707,87.829247 86.6084684,87.83019 C86.6247764,87.8306615 86.6410844,87.8325474 86.657156,87.8325474 C86.6607012,87.8325474 86.6640101,87.8316044 86.6675553,87.8316044 C86.7507496,87.831133 86.8337075,87.8238248 86.9166655,87.8115661 C86.9303736,87.8096801 86.9438454,87.8077942 86.9573172,87.8054367 C87.0386207,87.7915277 87.1189788,87.7717251 87.1986279,87.7465004 C87.2118634,87.742257 87.2248625,87.7375421 87.2378616,87.7330629 C87.3179834,87.7052449 87.3966871,87.6724763 87.4732636,87.6326354 C87.4824812,87.6279205 87.4914624,87.6222626 87.5006799,87.6173119 C87.5805654,87.5739348 87.6583237,87.5253712 87.7327731,87.4687924 L95.0158191,81.9014302 C101.262009,77.1264082 105.974304,70.8428518 108.780693,63.588496 C109.181538,62.5521594 109.543623,61.4960203 109.865528,60.421493 L113.592727,47.9859259 C113.870908,47.1523304 114.700724,46.6447706 115.574264,46.7751378 C116.101791,46.854584 116.548251,47.1466725 116.832105,47.5974176 C117.115958,48.0479269 117.185444,48.5762323 117.028509,49.084735 L111.44102,67.1704108 C111.153385,68.1020764 110.867168,69.0523659 110.577643,70.0146784 C108.150118,78.0811769 105.398325,87.2240887 99.2053136,92.2683319 L85.5382873,103.400227 C85.1268064,103.735221 84.8885682,104.236887 84.8885682,104.766371 L84.8885682,116.472542 L68.0528319,116.472542 L68.0528319,99.998186 C68.1405168,99.2360213 68.9585153,92.8826842 72.3241026,87.4388527 C72.8367402,86.6097363 72.5784125,85.5229503 71.7471786,85.0118544 C70.915472,84.5000512 69.826383,84.7581924 69.3139818,85.5873087 C65.3019842,92.0766709 64.5544173,99.4243819 64.5244012,99.7339155 C64.5189652,99.7900229 64.516129,99.8466018 64.516129,99.9027092 L64.516129,118.236153 C64.516129,119.210253 65.3078929,120 66.2844805,120 L86.6569196,120 C87.6335072,120 88.4252711,119.210253 88.4252711,118.236153 L88.4252711,105.602089 L101.442342,94.999206 C108.474387,89.271537 111.391387,79.5788671 113.964974,71.0274404 C114.252136,70.073379 114.535517,69.1308691 114.820788,68.2076903 L120.408278,50.1220145 C120.866083,48.6396478 120.654079,47.0346934 119.82639,45.7204131 Z M93.1876717,59.8330726 L92.945652,60.6105607 L91.3791412,65.6425452 L86.798019,70.1061476 L90.4365877,58.9605791 C90.6337014,58.3568352 91.1869908,57.9659694 91.8038575,57.9659694 C91.8825612,57.9659694 91.9624467,57.9723346 92.0428048,57.9855363 C92.6069661,58.0777127 92.9078364,58.4407606 93.0368821,58.6491595 C93.1659278,58.8575583 93.3571328,59.2880293 93.1876717,59.8330726 Z M101.015499,55.3840864 L100.337418,57.4758549 L98.8564648,62.0431852 C98.5688299,61.9606743 98.2722139,61.9055099 97.9703983,61.8734486 C97.9685075,61.8732128 97.966853,61.8729771 97.9651986,61.8727413 C97.8007008,61.8552962 97.6350213,61.8428017 97.4676873,61.8409157 C97.4466524,61.84068 97.4256174,61.8404442 97.4048189,61.8404442 C97.0027919,61.8404442 96.607619,61.8857073 96.2249725,61.9736403 L96.5657855,60.8793104 C96.5657855,60.8790747 96.5657855,60.8790747 96.5657855,60.8788389 L98.5217968,54.5955182 C98.7290735,53.9304806 99.4215715,53.5455084 100.097761,53.7194885 C100.450628,53.8102505 100.741572,54.035623 100.917414,54.354115 C101.092784,54.6723712 101.128,55.0380122 101.015499,55.3840864 Z M109.2099,50.289158 L106.476069,59.4103812 C106.232632,60.2222881 105.964377,61.0228793 105.671779,61.8112118 C104.793985,64.1762091 103.697096,66.4315848 102.396004,68.5558862 C102.396477,68.5544717 102.396713,68.5530572 102.397186,68.5516427 C102.427438,68.4519225 102.453436,68.3514949 102.477307,68.2505959 C102.485107,68.2180631 102.491488,68.1852945 102.498579,68.1525259 C102.514178,68.081095 102.528358,68.0094284 102.540885,67.9375261 C102.547266,67.9009856 102.553175,67.8646808 102.558847,67.8279045 C102.569719,67.7560022 102.578937,67.6836284 102.586736,67.6114903 C102.590281,67.5782502 102.594536,67.5454816 102.597608,67.5120058 C102.606826,67.4103995 102.61368,67.3085575 102.616752,67.2064798 C102.616752,67.2041223 102.616989,67.2015291 102.617225,67.1989359 C102.620298,67.0945008 102.619352,66.9900656 102.61628,66.8858661 C102.615334,66.8530975 102.612971,66.8208004 102.611316,66.7882675 C102.607771,66.7151865 102.602808,66.6421054 102.59619,66.5692601 C102.592881,66.5327196 102.5891,66.4964148 102.585082,66.4598743 C102.57681,66.3875005 102.566883,66.3148909 102.555775,66.2429886 C102.550811,66.2104557 102.546321,66.1781586 102.540648,66.1456257 C102.523159,66.0461412 102.503542,65.9468924 102.480616,65.8481151 C102.479671,65.8445789 102.479198,65.840807 102.478253,65.8372708 C102.453909,65.7354288 102.42602,65.6342941 102.395767,65.5338666 C102.386314,65.5025124 102.375678,65.4718655 102.365515,65.4407471 C102.342826,65.370495 102.318955,65.3007144 102.293429,65.2314053 C102.28043,65.1967507 102.267194,65.1623319 102.253723,65.1279131 C102.226543,65.0595469 102.198181,64.9916523 102.167929,64.9244648 C102.15422,64.8935822 102.140985,64.8629353 102.126804,64.8322884 C102.083789,64.741055 102.038883,64.6505287 101.990432,64.561417 C101.987832,64.5567021 101.985705,64.5517514 101.983105,64.5472723 C101.937963,64.4647614 101.890457,64.3831935 101.840587,64.3025686 L104.380613,56.4687507 C104.380613,56.468515 104.380613,56.468515 104.38085,56.4682792 L106.643167,49.4916315 C106.848553,48.8586552 107.499217,48.4687324 108.157209,48.5847191 C108.673391,48.676424 108.9485,49.0107109 109.066437,49.2016647 C109.184375,49.3930899 109.359981,49.7884348 109.2099,50.289158 Z" id="Shape"></path>
                        <path d="M56.1202875,99.7349276 C56.0871993,99.3827212 55.2349417,91.0346741 50.4662224,84.2774497 C46.5554329,78.7352668 41.2138149,75.9675936 39.1845626,75.06421 L33.5709123,57.8685673 C32.8042113,55.5195814 30.4724383,54.1041547 28.0298197,54.5044536 C27.3096786,54.6223272 26.6342065,54.8948511 26.0438184,55.2934997 L25.5009355,53.5499128 C24.7337618,51.0849392 22.1698986,49.6586681 19.6644125,50.303437 C19.136892,50.4392274 18.642696,50.6667235 18.1957689,50.9635294 L17.3669094,48.4075573 C16.620534,46.1050136 14.2563818,44.6879366 11.8681224,45.1122817 C11.177997,45.2348703 10.5304136,45.5033865 9.96365989,45.8907193 C8.88616614,44.0191216 6.76237608,42.9518936 4.54286657,43.2868905 C3.0040287,43.5188658 1.64646693,44.4059829 0.818789119,45.7205097 C-0.0091250337,47.0350366 -0.221125889,48.6397684 0.237382092,50.1230903 L5.82479816,68.2089147 C6.11006575,69.1325726 6.39367894,70.0748545 6.68083729,71.0289238 C8.87387623,78.3154008 11.3595094,86.5740997 16.4692736,92.3626386 C17.1144936,93.0939266 18.2321659,93.1646508 18.9650697,92.5205892 C19.6979734,91.8769991 19.769113,90.7621502 19.1234204,90.0308622 C14.5246326,84.8213187 12.1566988,76.9549033 10.0681241,70.0142674 C9.77836595,69.051947 9.49238932,68.1011782 9.20452194,67.1697407 L3.61734221,49.0836805 C3.46017324,48.5751736 3.52989481,48.0473354 3.81374434,47.5965866 C4.09759387,47.1460736 4.54428464,46.8542184 5.07156881,46.7743001 C5.9439157,46.6429889 6.77513867,47.15126 7.05307959,47.9850982 L8.04572574,51.2971118 C8.04596208,51.297819 8.04619842,51.2985262 8.04619842,51.2992335 L10.7799932,60.4205317 C10.8738219,60.7336041 10.9721411,61.0447905 11.0725874,61.3545624 C13.5454581,68.9736789 18.0534896,75.6328325 24.1986783,80.756564 C24.3050332,80.845205 24.4120972,80.9329029 24.5193975,81.0206009 C24.8843132,81.3188212 25.253483,81.6130339 25.6297431,81.9006455 L32.912457,87.4680534 C32.9869055,87.5251043 33.0651354,87.573904 33.1457289,87.6172815 C33.1542373,87.6219964 33.1625093,87.6271828 33.171254,87.631662 C33.2483023,87.6719748 33.3279503,87.7049794 33.4090164,87.7330334 C33.42107,87.7372768 33.4331236,87.7415203 33.4454135,87.745528 C33.5257705,87.7714602 33.6075457,87.7914987 33.6897935,87.8054078 C33.701847,87.8075295 33.7139006,87.8091797 33.7259542,87.81083 C33.8100927,87.8233246 33.894704,87.8306327 33.9793153,87.8311042 C33.9821514,87.8311042 33.9849875,87.8318115 33.9878237,87.8318115 C34.001059,87.8318115 34.0142942,87.8301613 34.0275295,87.8299255 C34.065581,87.8289825 34.103396,87.827568 34.1412111,87.8245033 C34.1605914,87.8228531 34.1799716,87.8202599 34.1991155,87.8179024 C34.2345671,87.8136589 34.2697824,87.8087083 34.3049978,87.8023431 C34.3255597,87.7985711 34.3458853,87.7943277 34.3659746,87.7898485 C34.3997718,87.7825403 34.4333327,87.7742891 34.4666573,87.7648593 C34.4874556,87.7589656 34.5080175,87.7528361 34.5283431,87.7462352 C34.5609586,87.7358623 34.5931015,87.7243107 34.6252443,87.7118161 C34.6458063,87.7040365 34.6661319,87.6960211 34.6859848,87.6875341 C34.7176549,87.6738608 34.748616,87.6590087 34.7795771,87.6434494 C34.7991937,87.6337838 34.8188103,87.6243539 34.8377178,87.6137452 C34.8691516,87.5965357 34.8994037,87.5776759 34.9298921,87.5588161 C34.947618,87.547736 34.9655801,87.5371274 34.9828333,87.52534 C35.0152124,87.5031798 35.0461735,87.4791335 35.077371,87.4548516 C35.0915516,87.4437715 35.1064413,87.4336343 35.1203857,87.421847 C35.1648184,87.3848346 35.2078331,87.3459363 35.2491933,87.3039733 C35.8750331,86.6686344 35.9277379,85.6678872 35.3723287,84.9705467 L21.9226825,68.0846759 C21.8898306,68.0434201 21.8593422,68.0012214 21.8309809,67.9578439 C21.4057975,67.3081244 21.4833184,66.4368024 22.0363641,65.8721876 C22.3497567,65.5520428 22.7695042,65.3728749 23.2178494,65.3676885 C23.2180857,65.3676885 23.218322,65.3676885 23.218322,65.3676885 C23.6687943,65.361559 24.0901962,65.5317686 24.4111518,65.8443695 L36.5178896,77.6402206 C36.562086,77.6833624 36.6079368,77.7232037 36.6556784,77.7606875 C36.661587,77.7651667 36.6677319,77.7691744 36.6736405,77.7736536 C36.7164188,77.8066582 36.7601425,77.8377768 36.8052843,77.866538 C36.8135564,77.8717244 36.8223011,77.8762036 36.8305732,77.8811543 C36.8735878,77.9073223 36.9168388,77.9320758 36.9615079,77.9544717 C36.9766339,77.9620157 36.9922327,77.9683808 37.0075951,77.9754533 C37.0451738,77.9928986 37.0827525,78.0098724 37.1212767,78.0244887 C37.1278943,78.0270819 37.1342756,78.0303824 37.1408932,78.0329756 C37.2030518,78.0560788 43.4144169,80.4121372 47.5740769,86.3067623 C51.5694776,91.9687048 52.4994925,99.1898799 52.5923759,99.9975501 L52.5923759,116.472042 L35.7568609,116.472042 L35.7568609,104.765775 C35.7568609,104.236051 35.5181531,103.73438 35.1071504,103.399619 L24.4260415,94.6993656 C23.6697397,94.0831222 22.5556126,94.1953379 21.9378085,94.9497293 C21.3200045,95.7041206 21.4325044,96.8154333 22.1888062,97.4316767 L32.2202045,105.602678 L32.2202045,118.236139 C32.2202045,119.210247 33.011958,120 33.9885327,120 L54.3607041,120 C55.3372788,120 56.1290323,119.210247 56.1290323,118.236139 L56.1290323,99.902544 C56.1285596,99.8473791 56.1257234,99.7912712 56.1202875,99.7349276 Z M18.6618399,64.5487024 C18.6590038,64.5538888 18.6566403,64.559311 18.6535678,64.5647332 C18.60559,64.6533742 18.5606845,64.7431939 18.5181426,64.8337209 C18.5034892,64.8648395 18.4902539,64.8959581 18.4763096,64.9270768 C18.4465302,64.9937933 18.4181689,65.061217 18.3912257,65.1288765 C18.3775177,65.1637671 18.3640461,65.1984219 18.3510471,65.233784 C18.3255219,65.3026222 18.3018875,65.3721677 18.2794348,65.4419489 C18.269272,65.4733032 18.2586365,65.5041861 18.2489464,65.5357763 C18.2186943,65.6359689 18.1908057,65.7368687 18.1666985,65.8384758 C18.1652805,65.843898 18.1645715,65.8495559 18.1631534,65.8549781 C18.1404643,65.9513987 18.1210841,66.0485266 18.1043036,66.146126 C18.098395,66.1798379 18.0936682,66.213314 18.0884686,66.2470258 C18.0773604,66.3179858 18.0676703,66.3891814 18.0596346,66.4603771 C18.0553804,66.4976252 18.0515989,66.5348733 18.04829,66.5721213 C18.0416724,66.6437885 18.0369455,66.7159272 18.0334004,66.7878301 C18.0317459,66.821542 18.0293825,66.8547823 18.0284371,66.8884942 C18.0253646,66.9924587 18.0244193,67.0964233 18.0274917,67.2003879 C18.0274917,67.2039241 18.0279644,67.207696 18.0282008,67.2112322 C18.0312733,67.3121321 18.0381272,67.4130319 18.0471083,67.513696 C18.0499445,67.5469364 18.0541987,67.5797052 18.0579802,67.6127099 C18.0660159,67.6850843 18.074997,67.7576944 18.0861051,67.8298331 C18.0915411,67.8661382 18.0974497,67.9019718 18.103831,67.9382769 C18.1165936,68.010887 18.1310106,68.0837329 18.1468456,68.1558716 C18.1536996,68.1876975 18.1600809,68.2192876 18.1676439,68.2508778 C18.1919874,68.3534278 18.2186943,68.4557421 18.2491827,68.5568777 C16.5146518,65.7246098 15.142673,62.6589522 14.1694071,59.4115333 L11.4356123,50.2902351 C11.2852973,49.7892721 11.4606648,49.3939239 11.5786006,49.2029686 C11.6965364,49.0117776 11.9716412,48.6774879 12.4878172,48.586018 C12.5658109,48.5721089 12.6438045,48.565508 12.7210891,48.565508 C13.2937514,48.565508 13.8210355,48.9346882 14.0020753,49.493645 L17.1983959,59.3509463 L18.8045919,64.3044682 C18.7542505,64.3846223 18.7067453,64.4661908 18.6618399,64.5487024 Z M24.2374388,61.9415732 C24.206005,61.9354437 24.1748075,61.9283713 24.1431374,61.9229491 C23.9999127,61.8979599 23.8564517,61.8791001 23.7120453,61.8663698 C23.6782481,61.8633051 23.6449235,61.8618906 23.6111263,61.8595331 C23.4879909,61.8508105 23.3648555,61.8463313 23.2417201,61.8463313 C23.2098136,61.8463313 23.1783799,61.8451525 23.1467097,61.8458598 C23.0018306,61.848453 22.8571879,61.8571756 22.7127815,61.8715562 C22.6792207,61.8748567 22.6463688,61.8795716 22.6128079,61.8835793 C22.4882544,61.8984314 22.3646464,61.9177627 22.2412746,61.9413374 C22.2124406,61.9469954 22.183843,61.9512388 22.1550089,61.9573682 C22.0321099,61.9833004 21.9101562,62.0120616 21.7889116,62.0469522 L20.3592648,57.6387137 L19.6291972,55.3844982 C19.5169337,55.0388927 19.552149,54.6730129 19.7277528,54.3542826 C19.9033566,54.0355522 20.1942965,53.8101778 20.5473949,53.7194151 C20.6570586,53.6911254 20.7671951,53.6774521 20.8756771,53.6774521 C21.4355768,53.6774521 21.9496257,54.0381454 22.1231025,54.5959235 L24.0790881,60.8790602 C24.0790881,60.8792959 24.0793244,60.8795316 24.0793244,60.8797674 L24.4213146,61.9776425 C24.3605741,61.9637334 24.2988883,61.9533605 24.2374388,61.9415732 Z M32.4322054,68.7285018 L29.2656642,65.6430413 L27.699174,60.6110155 L27.4569211,59.8335209 C27.2876985,59.2889447 27.4789011,58.8579987 27.6077088,58.6498338 C27.7367528,58.4414332 28.0376191,58.0783824 28.6020093,57.9862052 C29.3110423,57.8697461 29.985569,58.2804178 30.207969,58.9610202 L33.8464898,70.1064446 L32.4322054,68.7285018 Z" id="Shape"></path>
                        <path d="M60.3225806,23.2258065 C56.5871391,23.2258065 53.5483871,26.2647976 53.5483871,30 C53.5483871,33.7354415 56.5873782,36.7741935 60.3225806,36.7741935 C64.0580222,36.7741935 67.0967742,33.7352024 67.0967742,30 C67.0970133,26.2647976 64.0580222,23.2258065 60.3225806,23.2258065 Z M60.3225806,33.1967863 C58.5600567,33.1967863 57.1260335,31.7627631 57.1260335,30.0002391 C57.1260335,28.2377151 58.5600567,26.8036919 60.3225806,26.8036919 C62.0851046,26.8036919 63.5191278,28.2377151 63.5191278,30.0002391 C63.5191278,31.7627631 62.0853437,33.1967863 60.3225806,33.1967863 Z" id="Shape"></path>
                        <path d="M42.2580645,27.0967742 C39.9458375,27.0967742 38.0645161,28.977865 38.0645161,31.2903226 C38.0645161,33.6027801 39.9458375,35.483871 42.2580645,35.483871 C44.5702915,35.483871 46.4516129,33.6027801 46.4516129,31.2903226 C46.4518435,28.9780956 44.5702915,27.0967742 42.2580645,27.0967742 Z M42.2580645,32.0338595 C41.8481393,32.0338595 41.5147581,31.7002478 41.5147581,31.2905531 C41.5147581,30.880628 41.8483699,30.5472467 42.2580645,30.5472467 C42.6679897,30.5472467 43.0013709,30.8808585 43.0013709,31.2905531 C43.001832,31.7004783 42.6679897,32.0338595 42.2580645,32.0338595 Z" id="Shape"></path>
                        <path d="M77.7419355,27.0967742 C75.4297085,27.0967742 73.5483871,28.9780956 73.5483871,31.2903226 C73.5483871,33.6025496 75.4294779,35.483871 77.7419355,35.483871 C80.054393,35.483871 81.9354839,33.6025496 81.9354839,31.2903226 C81.9354839,28.9780956 80.0541625,27.0967742 77.7419355,27.0967742 Z M77.7419355,32.0333984 C77.3320103,32.0333984 76.9986291,31.6997866 76.9986291,31.290092 C76.9986291,30.8801669 77.3322409,30.5467856 77.7419355,30.5467856 C78.1516301,30.5467856 78.4852419,30.8803974 78.4852419,31.290092 C78.4854724,31.7000172 78.1518607,32.0333984 77.7419355,32.0333984 Z" id="Shape"></path>
                        <path d="M94.2582944,27.8545082 L94.2582944,6.64250999 C94.2582944,5.92825517 93.8305564,5.28438658 93.174378,5.01039994 C92.5186696,4.7366495 91.7621372,4.88639737 91.2587224,5.3904383 L86.1940216,10.4620254 L78.941746,0.709282127 C78.6251729,0.283658058 78.1351542,0.0238431439 77.6072973,0.00164077845 C77.0773251,-0.0212701731 76.5692098,0.19673816 76.2183236,0.594018783 L67.35921,10.6240555 L61.1389113,5.31320241 C60.4822629,4.75271078 59.5184421,4.75271078 58.8617936,5.31320241 L52.6414949,10.6238193 L43.7821463,0.594018783 C43.4312601,0.19673816 42.9217347,-0.0200891962 42.3931727,0.00164077845 C41.8648456,0.0240793392 41.374827,0.283894254 41.0587239,0.709282127 L33.8062133,10.4617892 L28.7417475,5.3904383 C28.2383327,4.88639737 27.4822704,4.7364133 26.826092,5.01039994 C26.1699136,5.28415038 25.7419405,5.92849137 25.7419405,6.64250999 L25.7419405,27.8545082 C24.2603686,28.530027 23.2258065,30.0272695 23.2258065,31.7659036 C23.2255715,33.5043016 24.2603686,35.0015441 25.7417054,35.6770629 L25.7417054,47.2650443 C25.7417054,48.2410036 26.5290255,49.0322581 27.500132,49.0322581 L92.4996329,49.0322581 C93.4707393,49.0322581 94.2580594,48.2410036 94.2580594,47.2650443 L94.2580594,35.6770629 C95.7396313,35.0015441 96.7741934,33.5043016 96.7741934,31.7659036 C96.7746634,30.0275057 95.7398663,28.5302632 94.2582944,27.8545082 Z M27.500367,32.5273975 C27.0824998,32.5273975 26.7426595,32.1856228 26.7426595,31.7659036 C26.7426595,31.3459483 27.0827348,31.0044097 27.500367,31.0044097 C27.9179992,31.0044097 28.2580744,31.3461844 28.2580744,31.7659036 C28.2580744,32.185859 27.9179992,32.5273975 27.500367,32.5273975 Z M77.4157552,4.56162872 L83.6771826,12.9817577 L77.4378472,19.229834 L70.0391536,12.9130249 L77.4157552,4.56162872 Z M42.5840097,4.56162872 L49.9603763,12.9127887 L42.5616827,19.2295978 L36.3223473,12.9817577 L42.5840097,4.56162872 Z M90.7414414,45.4966495 L29.2587935,45.4966495 L29.2587935,42.2161319 L47.3786715,42.2161319 C48.3497779,42.2161319 49.137098,41.4248774 49.137098,40.4489181 C49.137098,39.4729588 48.3497779,38.6817043 47.3786715,38.6817043 L29.2587935,38.6817043 L29.2587935,35.6815506 C29.3525669,35.6387992 29.44446,35.5927411 29.534238,35.5436125 C29.5384684,35.5412505 29.5422287,35.5386524 29.5464591,35.5362904 C29.6510434,35.478895 29.7521024,35.4158308 29.8510462,35.3501685 C29.8808939,35.3303281 29.9095664,35.3097791 29.9389441,35.2894663 C30.016501,35.2351413 30.0921777,35.177982 30.1659743,35.118697 C30.1908865,35.0986204 30.2162687,35.0794886 30.2404759,35.0589396 C30.3344843,34.9800503 30.4254374,34.8976181 30.5121601,34.8109344 C30.5262613,34.7967627 30.5391875,34.7816462 30.5530537,34.7674745 C30.6256752,34.6928367 30.6957114,34.6153647 30.7629274,34.5352944 C30.7861945,34.5074234 30.8089915,34.4797885 30.8315535,34.4512089 C30.893129,34.3742092 30.9521192,34.2950837 31.0082892,34.2135963 C31.0235656,34.1916302 31.0397821,34.1703726 31.0545884,34.1484064 C31.1227444,34.0458976 31.1869051,33.9400821 31.2461304,33.8316684 C31.2597616,33.8068679 31.2717477,33.781595 31.2846739,33.7565583 C31.3302679,33.6696384 31.3728067,33.5808289 31.4125252,33.4903661 C31.4273315,33.4563539 31.4419028,33.4228142 31.4560041,33.3885659 C31.4968977,33.2886552 31.534031,33.1870912 31.567404,33.0836376 C31.5730445,33.0661592 31.5798601,33.0491531 31.5852656,33.0316747 C31.6223989,32.9114512 31.6529516,32.7886296 31.679509,32.6641546 C31.6865596,32.6308511 31.6919651,32.5970752 31.6983107,32.5635354 C31.7164073,32.4674039 31.7312136,32.3700914 31.7429646,32.2715979 C31.74743,32.2342791 31.7521305,32.1974326 31.7554208,32.1598775 C31.7674068,32.0299701 31.7753975,31.8991178 31.7753975,31.7659036 C31.7753975,31.6329256 31.7674068,31.5020734 31.7554208,31.3719297 C31.7521305,31.3343747 31.74743,31.2975282 31.7429646,31.2602093 C31.7314486,31.1617159 31.7164073,31.0646396 31.6983107,30.9682718 C31.6919651,30.9347321 31.6865596,30.9009562 31.679509,30.8676526 C31.6529516,30.7431777 31.6223989,30.6205923 31.5852656,30.5001326 C31.5798601,30.482418 31.5730445,30.4656481 31.567404,30.4481696 C31.534031,30.3447161 31.4968977,30.243152 31.4560041,30.1432414 C31.4419028,30.1089931 31.4273315,30.0752171 31.4125252,30.0414412 C31.3728067,29.9509784 31.3302679,29.8624051 31.2846739,29.775249 C31.2715127,29.7502123 31.2595266,29.7247032 31.2461304,29.7001389 C31.1866701,29.5917252 31.1227444,29.4859097 31.0545884,29.3834009 C31.0397821,29.3611985 31.0235656,29.3399409 31.0082892,29.3182109 C30.9521192,29.2369597 30.893129,29.1578343 30.8315535,29.0805984 C30.8089915,29.0522549 30.7861945,29.0243839 30.7629274,28.996749 C30.6957114,28.916915 30.6256752,28.8394429 30.5530537,28.764569 C30.5391875,28.7503973 30.5262613,28.7352808 30.5121601,28.721109 C30.4254374,28.6344253 30.3344843,28.5519931 30.2404759,28.4728677 C30.2160337,28.4523187 30.1906515,28.4329507 30.1659743,28.4131103 C30.0921777,28.3538252 30.016736,28.2969021 29.9389441,28.242341 C29.9098015,28.221792 29.8808939,28.201243 29.8510462,28.1816388 C29.7521024,28.1159765 29.6510434,28.0529123 29.5464591,27.9955168 C29.5422287,27.9931549 29.5384684,27.9905567 29.534238,27.9881948 C29.444225,27.9390661 29.3523318,27.893008 29.2587935,27.8502567 L29.2587935,10.8980421 L41.2258238,22.8814145 C41.2676575,22.9232211 41.3111364,22.9621934 41.3560253,22.9990398 C41.3696566,23.0103772 41.3842279,23.019825 41.3983291,23.03069 C41.4298219,23.0550181 41.4613147,23.0793463 41.4939826,23.1010762 C41.5127843,23.1135946 41.532056,23.1242234 41.5510927,23.1360332 C41.5802353,23.153984 41.6089079,23.172171 41.6389905,23.1882323 C41.6603774,23.1998059 41.6824694,23.2094899 41.7040913,23.2201187 C41.7327639,23.2340542 41.7609664,23.2479898 41.790109,23.2602719 C41.813141,23.2699559 41.8368782,23.2779866 41.8599102,23.2867258 C41.8885828,23.2973546 41.9170203,23.3079834 41.9461629,23.317195 C41.97037,23.3247533 41.9948122,23.3308943 42.0192544,23.3372716 C42.048162,23.3448299 42.0770695,23.3526243 42.1062121,23.3587654 C42.1311243,23.3639617 42.1560366,23.367977 42.1811838,23.3722285 C42.2105614,23.3771886 42.239469,23.3816763 42.2688466,23.3849831 C42.2942289,23.3878174 42.3196111,23.389707 42.3449934,23.3915965 C42.374371,23.3937223 42.4035136,23.3953757 42.4331262,23.3958481 C42.4444072,23.3960843 42.4556882,23.3975014 42.4672043,23.3975014 C42.4747249,23.3975014 42.4822456,23.3956119 42.4897663,23.3956119 C42.5778991,23.3944309 42.6657969,23.3871088 42.7529897,23.3727009 C42.7659159,23.3705752 42.778607,23.3677408 42.7915331,23.3653789 C42.879901,23.348609 42.9673288,23.3259342 43.0528764,23.2957012 C43.0632173,23.2921583 43.0733232,23.2874344 43.0834291,23.2836553 C43.1710919,23.2505879 43.2568746,23.2116157 43.3396019,23.1639042 C43.3457125,23.1603613 43.351353,23.156346 43.3572285,23.152803 C43.4432461,23.102021 43.5266786,23.043917 43.6051756,22.9770737 L59.9995299,8.97989944 L76.3938842,22.9770737 C76.4723812,23.0441531 76.5558137,23.1022572 76.6420663,23.1530392 C76.6479419,23.1565821 76.6535824,23.1605975 76.6594579,23.1641404 C76.7421852,23.2116157 76.8282029,23.2508241 76.9158657,23.2838915 C76.9259716,23.2876706 76.9358425,23.2921583 76.9461834,23.2957012 C77.031731,23.3261704 77.1193938,23.348609 77.2077617,23.3653789 C77.2206878,23.3677408 77.233379,23.3705752 77.2463051,23.3727009 C77.3334979,23.3871088 77.4213957,23.3944309 77.5092935,23.3956119 C77.5168142,23.3956119 77.5243349,23.3975014 77.5318555,23.3975014 C77.5431365,23.3975014 77.5544175,23.3960843 77.5659336,23.3958481 C77.5953112,23.3953757 77.6242188,23.3937223 77.6535964,23.3915965 C77.6792137,23.389707 77.7045959,23.3880536 77.7302132,23.3849831 C77.7595908,23.3816763 77.7882634,23.3771886 77.817406,23.3722285 C77.8427882,23.367977 77.8677004,23.3639617 77.8930827,23.3587654 C77.9219903,23.3526243 77.9504278,23.3450661 77.9791003,23.3375078 C78.0040126,23.3308943 78.0286898,23.3247533 78.0531319,23.317195 C78.0818045,23.3082196 78.109772,23.2975908 78.1379745,23.2871982 C78.1619466,23.278459 78.1856837,23.2701921 78.2091858,23.2602719 C78.2378584,23.248226 78.2653558,23.2345266 78.2933233,23.2208273 C78.3158853,23.2099623 78.3384473,23.1998059 78.3603043,23.1879961 C78.3889768,23.1726434 78.4164743,23.155165 78.4444418,23.1381589 C78.4648886,23.1256406 78.4855704,23.1143032 78.5053122,23.10084 C78.5353949,23.0805272 78.5643024,23.0580887 78.593445,23.0361225 C78.6098965,23.023368 78.627288,23.0120306 78.6435045,22.9985674 C78.6881585,22.9619572 78.7314023,22.9229849 78.773001,22.8814145 L90.7400313,10.8978059 L90.7400313,27.8502567 C90.6462579,27.893008 90.5543647,27.9390661 90.4643517,27.9881948 C90.4603564,27.9903205 90.456596,27.9929187 90.4526007,27.9952806 C90.3477813,28.0529123 90.2467223,28.1159765 90.1475435,28.181875 C90.1179309,28.2014792 90.0892583,28.2220282 90.0603508,28.2421048 C89.9825588,28.2966659 89.9066471,28.3538252 89.8323805,28.4133465 C89.8077033,28.4331869 89.782791,28.4523187 89.7585839,28.4723953 C89.6645755,28.5515207 89.5733874,28.6339529 89.4866647,28.7208728 C89.4727985,28.7345722 89.4601073,28.7496887 89.4464761,28.7636242 C89.3736196,28.8384981 89.3033484,28.9159702 89.2361324,28.9962766 C89.2128653,29.0239115 89.1900683,29.0517826 89.1677413,29.080126 C89.1061658,29.1573619 89.0469405,29.2367235 88.9905355,29.3182109 C88.9754942,29.3399409 88.9592777,29.3609623 88.9447064,29.3829285 C88.8763154,29.4856735 88.8123897,29.5912528 88.7529294,29.6999027 C88.7395332,29.724467 88.7275471,29.7497399 88.714621,29.7745404 C88.6687919,29.8616965 88.6262531,29.950506 88.5865346,30.0409688 C88.5717282,30.0747447 88.557157,30.1085207 88.5430557,30.142769 C88.5021621,30.2426796 88.4650287,30.3442437 88.4316558,30.4479334 C88.4260153,30.4654119 88.4191997,30.4821818 88.4137942,30.4996602 C88.3766609,30.6198837 88.3461082,30.7427053 88.3195508,30.866944 C88.3125002,30.9004838 88.3068597,30.9340235 88.3005141,30.9677995 C88.2824175,31.063931 88.2676112,31.1610073 88.2560952,31.2592645 C88.2516298,31.2968196 88.2469293,31.3336661 88.243639,31.3714574 C88.231653,31.5013648 88.2236623,31.632217 88.2236623,31.765195 C88.2236623,31.898173 88.231653,32.0290253 88.243639,32.1589327 C88.2469293,32.196724 88.2518648,32.2335705 88.2560952,32.2711255 C88.2676112,32.3693828 88.2824175,32.4664591 88.3005141,32.5625906 C88.3068597,32.5963666 88.3122652,32.6301425 88.3195508,32.6634461 C88.3461082,32.787921 88.3766609,32.9107426 88.4137942,33.0307299 C88.4191997,33.0482083 88.4260153,33.0652144 88.4316558,33.0824567 C88.4650287,33.1859102 88.5021621,33.2877104 88.5430557,33.3876211 C88.557157,33.4218694 88.5717282,33.4556454 88.5865346,33.4894213 C88.6262531,33.5798841 88.6687919,33.6686936 88.714621,33.7558497 C88.7275471,33.7806502 88.7395332,33.8061593 88.7529294,33.8304874 C88.8123897,33.9391373 88.8765504,34.0449528 88.9447064,34.1474616 C88.9595128,34.169664 88.9754942,34.1906854 88.9905355,34.2121791 C89.0469405,34.2936666 89.1061658,34.372792 89.1677413,34.4502641 C89.1903033,34.4786075 89.2131003,34.5062424 89.2361324,34.5341134 C89.3033484,34.6141837 89.3736196,34.6916558 89.4464761,34.7667659 C89.4601073,34.7807014 89.4727985,34.7955817 89.4866647,34.8095173 C89.5736224,34.8964372 89.6645755,34.9788693 89.7585839,35.0579948 C89.782791,35.0783076 89.8077033,35.0974394 89.8323805,35.1170436 C89.9064121,35.1765649 89.9820888,35.2337242 90.0603508,35.2882853 C90.0894934,35.3085981 90.1179309,35.3291471 90.1475435,35.3485151 C90.2467223,35.4144136 90.3480164,35.4774778 90.4526007,35.5348733 C90.456596,35.536999 90.4603564,35.5395972 90.4643517,35.5419591 C90.5543647,35.591324 90.6462579,35.6371459 90.7400313,35.6798972 L90.7400313,38.6800509 L54.4123776,38.6800509 C53.4412711,38.6800509 52.653951,39.4713054 52.653951,40.4472647 C52.653951,41.423224 53.4412711,42.2144785 54.4123776,42.2144785 L90.7414414,42.2144785 L90.7414414,45.4966495 Z M92.4998679,32.5273975 C92.0820007,32.5273975 91.7421605,32.1856228 91.7421605,31.7659036 C91.7419254,31.3459483 92.0817657,31.0044097 92.4998679,31.0044097 C92.9177351,31.0044097 93.2575754,31.3461844 93.2575754,31.7659036 C93.2575754,32.185859 92.9177351,32.5273975 92.4998679,32.5273975 Z" id="Shape"></path>
                    </g>
                </g>
            </g>
        </g>
    </g>
</svg>