<?xml version="1.0" encoding="UTF-8"?>
<svg width="68px" height="65px" viewBox="0 0 68 65" version="1.1" xmlns="http://www.w3.org/2000/svg" xmlns:xlink="http://www.w3.org/1999/xlink">
    <!-- Generator: Sketch 49.3 (51167) - http://www.bohemiancoding.com/sketch -->
    <title>Shape</title>
    <desc>Created with Sketch.</desc>
    <defs></defs>
    <g id="Page-1" stroke="none" stroke-width="1" fill="none" fill-rule="evenodd">
        <g id="Desktop-HD-Copy-8" transform="translate(-746.000000, -1342.000000)" fill="#E94280" fill-rule="nonzero">
            <g id="Group-18" transform="translate(0.000000, 1178.000000)">
                <g id="2">
                    <g id="Group-3" transform="translate(150.000000, 80.000000)">
                        <g id="Group-19" transform="translate(0.000000, 84.000000)">
                            <g id="Group-27" transform="translate(596.000000, 0.000000)">
                                <g id="cooperate">
                                    <path d="M66.5802825,19.2428139 L49.5101458,1.99744445 C49.046972,1.52951955 48.4346204,1.27431193 47.7757412,1.27537419 C47.1206736,1.27763149 46.506482,1.53841597 46.0463312,2.00952764 L45.2393257,2.83609759 C44.2313575,3.86848013 42.893884,4.54978622 41.4730812,4.75480212 L40.2361548,4.93326156 C38.7303142,5.15062622 37.2929507,5.77337531 36.0949288,6.71466918 L32.4800964,3.06302258 C31.5678122,2.14138049 30.3549382,1.63388646 29.0646496,1.63388646 L24.5794605,1.63388646 C24.0970973,1.63388646 23.6435182,1.44414052 23.3024466,1.0995704 C22.6005885,0.390512805 21.6675377,0 20.6749473,0 C19.6823569,0 18.7493061,0.390512805 18.047448,1.0995704 L1.15461582,18.1659493 C-0.384871939,19.7212286 -0.384871939,22.2519269 1.15461582,23.807339 C1.42905024,24.0845885 1.61042932,24.4510677 1.66523734,24.8393232 L2.25669085,29.0217007 C2.40350275,30.0599257 2.88862606,31.0402576 3.62281701,31.7821124 L7.40483359,35.6029237 L6.80601978,36.2078799 C4.64314003,38.3929458 4.64314003,41.9480596 6.80601978,44.1331255 C7.85368109,45.1915334 9.24675124,45.7745806 10.728408,45.7745806 C11.0155915,45.7745806 11.2994892,45.7526715 11.5781295,45.70965 C11.3195986,47.4144422 11.8387634,49.2174934 13.1357552,50.5277893 C14.432747,51.8380852 16.2173594,52.3624426 17.9049734,52.1013926 C17.8623887,52.3828911 17.8407021,52.6697009 17.8407021,52.9598303 C17.8407021,54.4566854 18.4178293,55.8639124 19.4654906,56.9223203 C20.5131519,57.9807282 21.9062221,58.5637753 23.3878788,58.5637753 C23.6750624,58.5637753 23.95896,58.5418663 24.2376004,58.4988448 C23.9790695,60.203637 24.4982342,62.0066881 25.795226,63.3169841 C26.8766659,64.409517 28.2970744,64.9556507 29.7176142,64.9556507 C31.0059314,64.9556507 32.2933285,64.5047219 33.328635,63.6060512 C34.3575013,64.5349963 35.6543617,65 36.9516163,65 C38.3450808,65 39.7384138,64.4642233 40.7990871,63.3924044 L40.7992185,63.3922717 L40.9487906,63.2410326 C42.2133182,61.9636667 42.7236768,60.2088155 42.480918,58.5454514 C42.7461521,58.5850205 43.0137519,58.6052034 43.2813518,58.6052034 C44.6748162,58.6052034 46.0680178,58.0694268 47.1286911,56.9980062 L47.2786574,56.8465016 C48.543185,55.5690029 49.0535437,53.814019 48.8107849,52.1507876 C49.0760189,52.1903567 49.3436188,52.2105396 49.6112186,52.2105396 C51.0046831,52.2105396 52.3978847,51.674763 53.4586894,50.6030769 L53.6083928,50.4518378 C54.872789,49.1744719 55.3832791,47.4196207 55.1405203,45.7562566 C55.4057543,45.7958257 55.6733542,45.8160086 55.9408226,45.8160086 C57.3341556,45.8160086 58.7276201,45.280232 59.7882934,44.2084131 L59.7884248,44.2082803 L59.9379968,44.0570412 C61.9820601,41.9920106 62.0559261,38.6798884 60.1609091,36.5236363 L61.6848876,34.9840253 C63.3363572,33.3156154 64.2460127,31.0972212 64.2460127,28.7376793 L64.2460127,28.4243131 C64.2460127,26.2733722 65.0752305,24.2509647 66.5806768,22.730076 C67.531997,21.768732 67.531997,20.2042907 66.5802825,19.2428139 Z M29.3215292,62.7058824 C28.4344374,62.7058824 27.6001761,62.3628724 26.9728773,61.7398778 C26.3455785,61.1168831 26,60.2887701 26,59.4076903 C26,58.6516425 26.2551767,57.9349376 26.7238556,57.3529412 C26.8647799,57.5356506 27.0178859,57.7119939 27.186123,57.8790425 L31.3529412,62.0164248 C30.7737284,62.4629488 30.0666709,62.7058824 29.3215292,62.7058824 Z M39.5711973,61.5991457 L39.4226425,61.747831 C38.1454365,63.0251675 36.0668439,63.0252981 34.7893769,61.747831 L29.25212,56.2105742 C27.9747835,54.9332377 27.9747835,52.8546451 29.25212,51.5773086 L29.4008054,51.4286232 C30.0395389,50.7898897 30.8785211,50.4705882 31.7175034,50.4705882 C32.5564857,50.4705882 33.3953374,50.7898897 34.0340709,51.4286232 L39.5713278,56.9658801 C40.8487948,58.2433471 40.8487948,60.3216787 39.5711973,61.5991457 Z M45.6891656,55.4814126 L45.5403489,55.6300986 C45.5403489,55.6300986 45.5403489,55.6302291 45.5402183,55.6302291 C44.2628751,56.9075707 42.1844019,56.9075707 40.9070586,55.6302291 L35.3697722,50.0929501 C34.0924289,48.8156085 34.0924289,46.7370075 35.3697722,45.459666 L35.5184583,45.31098 C36.1571952,44.6722439 36.996182,44.3529412 37.8350382,44.3529412 C38.6738944,44.3529412 39.5130117,44.6722439 40.1517486,45.31098 L45.689035,50.848259 C46.9663783,52.1257312 46.9663783,54.2042016 45.6891656,55.4814126 Z M51.8067971,48.5991902 L51.6581288,48.7478762 C50.3809388,50.0252177 48.3027151,50.0252177 47.0255251,48.7478762 L41.4889032,43.2105971 C40.8700828,42.5918338 40.5294118,41.7690352 40.5294118,40.8940203 C40.5294118,40.0190055 40.8700828,39.1963374 41.4891642,38.577313 L41.637702,38.4286271 C42.2763623,37.789891 43.1151178,37.4705882 43.9540039,37.4705882 C44.7927594,37.4705882 45.631776,37.789891 46.2703057,38.4286271 L51.8069276,43.9660366 C53.0839871,45.2433782 53.0839871,47.3217181 51.8067971,48.5991902 Z M58.6889346,42.4815877 L58.5403786,42.6302742 C57.2631624,43.9074904 55.1845532,43.9076209 53.9070759,42.6302742 L48.3697747,37.0928425 C47.092428,35.8154958 47.092428,33.7370171 48.3697747,32.4596704 L48.5184613,32.3109838 C49.1571999,31.6722452 49.9961889,31.3529412 50.8351779,31.3529412 C51.6741669,31.3529412 52.5130253,31.6722452 53.1517639,32.3109838 L58.6890651,37.848285 C59.9664118,39.1256317 59.9664118,41.2041104 58.6889346,42.4815877 Z M64.9212562,21.3421992 C63.1380903,23.2917907 61.9653575,25.7329673 61.9653575,28.3948124 L61.9653575,28.8976969 C61.9653575,30.6684938 61.2731757,32.3667094 60.0411916,33.6188028 L58.5321778,35.1524477 L54.2621539,30.8127258 C52.1475465,28.6636023 48.7190754,28.6636023 46.6043372,30.8127258 L46.4553585,30.9641362 C45.1969532,32.2429491 44.6890655,33.999788 44.930649,35.6650364 C43.2922762,35.4195096 41.5636529,35.9356874 40.304986,37.2146332 L40.2214062,37.2995772 C39.261089,38.2764999 38.6527486,39.5700683 38.5784555,40.9489795 C38.5579202,41.327439 38.5754471,41.7012458 38.6280278,42.0661462 C36.9905706,41.8218158 35.2636477,42.3382595 34.006158,43.6162747 L33.8571794,43.7676851 C32.5987741,45.0466309 32.0908863,46.8034699 32.3324698,48.4687182 C30.694097,48.2230586 28.9654737,48.7392363 27.7069376,50.0183151 L27.557959,50.1697255 C26.1730722,51.5773502 25.696576,53.5640298 26.1287318,55.3700539 C26.02187,55.4217647 25.9211558,55.4914215 25.8327365,55.581284 C24.3672783,57.0706623 21.8825132,56.9078198 20.6399344,55.0928892 C20.3666979,54.6936922 20.1808342,54.2354731 20.1002628,53.7561176 C19.9086441,52.6152889 20.2615365,51.504503 21.0414835,50.7119581 L26.8906288,44.7673393 C27.3146751,44.3363714 27.3068273,43.6326255 26.8670852,43.2118934 C26.4421233,42.8052522 25.7640676,42.8477906 25.3512699,43.2673263 L19.5339085,49.1797754 C18.1959781,50.5394114 16.0085163,50.5219972 14.6924292,49.1276658 C13.4498504,47.8111 13.4847734,45.7166119 14.6921676,44.3668129 L14.7433095,44.3096519 L20.5918008,38.3658307 C21.0081301,37.9427058 21.0081301,37.2566399 20.5918008,36.833648 C20.1756023,36.4103902 19.5005551,36.4105231 19.0842258,36.833648 L13.2339033,42.7794632 C12.4479396,43.5771925 11.3446604,43.9347816 10.2135213,43.7299322 C9.75023564,43.6460517 9.30735441,43.4591483 8.9217626,43.185041 C7.98158826,42.5163893 7.45159572,41.4712722 7.45159572,40.343338 C7.45159572,39.4237093 7.8039649,38.558849 8.44395836,37.9085421 L18.2306396,27.9621163 C18.6417369,27.5443087 18.6431757,26.8671494 18.2337787,26.4477466 C18.2288084,26.4426952 18.2238381,26.4375108 18.218737,26.4324594 C17.8071164,26.0107967 17.1362546,26.0097333 16.7230645,26.4296678 L9.03987298,34.2382694 L5.27616729,30.41313 C4.86964783,29.9999751 4.60098922,29.4537545 4.51963301,28.8753642 L3.93104307,24.688249 C3.80887796,23.8194007 3.39006351,23.0346988 2.79257932,22.4010084 C2.11910163,21.6867609 2.12799588,20.5487238 2.81978526,19.8459084 L19.5951218,2.79635508 C19.8811765,2.5056312 20.2591821,2.31487273 20.6633472,2.29586335 C21.1037433,2.27525878 21.5213805,2.43770258 21.833464,2.74863223 C22.5635771,3.47590721 23.5134305,3.92973955 24.5357458,3.92973955 C26.0146762,3.92973955 27.9092818,3.92973955 29.0877696,3.92973955 C29.7970859,3.92973955 30.4767111,4.21607665 30.9781897,4.72587368 L46.4756322,20.4762754 C47.8157861,21.8383042 47.8513631,24.1036109 46.4887119,25.4423764 C45.1646462,26.7432561 43.0458532,26.729564 41.7385295,25.4010343 L31.1736016,14.6636588 C30.37979,13.8568901 29.0930016,13.8568901 28.2991899,14.6636588 L20.2525114,22.8416804 C19.8402368,23.2606844 19.8402368,23.9398377 20.2525114,24.3585758 L20.2675531,24.3738631 C20.6798277,24.7928671 21.3480735,24.7928671 21.7600864,24.3738631 L29.736265,16.2674922 L40.1532606,26.8546537 C42.3140397,29.0507024 45.9147713,29.1174347 48.0622091,26.9079598 C49.1150003,25.8248239 49.6822702,24.3826367 49.6532331,22.854309 C49.6251116,21.3741031 48.9941431,19.971264 47.9639799,18.9245516 L37.6057125,8.39720985 C38.4612607,7.77548347 39.4614712,7.36286027 40.505499,7.21131696 L41.7364367,7.03265537 C43.6205785,6.7590798 45.3645051,5.86524012 46.7011275,4.48818996 L47.504095,3.66081664 C47.575903,3.58690604 47.6581748,3.57108704 47.7144178,3.57095411 C47.7740616,3.57082118 47.853325,3.58597551 47.9253946,3.65922144 L64.9130159,20.9241258 C64.9848239,20.9972388 64.9999965,21.0805876 64.9999965,21.1374828 C65.0002581,21.1922511 64.9861319,21.2712131 64.9212562,21.3421992 Z" id="Shape"></path>
                                </g>
                            </g>
                        </g>
                    </g>
                </g>
            </g>
        </g>
    </g>
</svg>