<?xml version="1.0" encoding="UTF-8"?>
<svg width="73px" height="65px" viewBox="0 0 73 65" version="1.1" xmlns="http://www.w3.org/2000/svg" xmlns:xlink="http://www.w3.org/1999/xlink">
    <!-- Generator: Sketch 49.3 (51167) - http://www.bohemiancoding.com/sketch -->
    <title>career</title>
    <desc>Created with Sketch.</desc>
    <defs></defs>
    <g id="Page-1" stroke="none" stroke-width="1" fill="none" fill-rule="evenodd">
        <g id="Desktop-HD-Copy-8" transform="translate(-150.000000, -1342.000000)" fill="#E94280" fill-rule="nonzero">
            <g id="Group-18" transform="translate(0.000000, 1178.000000)">
                <g id="2">
                    <g id="Group-3" transform="translate(150.000000, 80.000000)">
                        <g id="Group-19" transform="translate(0.000000, 84.000000)">
                            <g id="Group-25">
                                <g id="career">
                                    <path d="M69.579771,44.2886577 L63.4112761,41.4843693 C62.9756331,41.2863173 62.6941211,40.8431616 62.6941211,40.35556 L62.6941211,38.6230396 C64.7661851,36.9342412 66.0980241,34.333651 66.0980241,31.4193337 L66.0980241,28.9803121 C66.7806446,28.5944872 67.232564,27.8488968 67.232564,27.0138356 L67.232564,26.7771288 C67.232564,21.6990069 63.1935961,17.5675676 58.2291346,17.5675676 L55.9600546,17.5675676 C50.9954515,17.5675676 46.9566251,21.6990069 46.9566251,26.7771288 L46.9566251,28.9248633 C46.9566251,29.6588717 47.2654533,30.3238225 47.8037087,30.7493157 C47.8949984,30.8214136 47.9911003,30.884825 48.0911651,30.9398394 L48.0911651,31.4193337 C48.0911651,34.333651 49.4228625,36.9342412 51.494785,38.6228948 L51.494785,40.3557047 C51.494785,40.8433064 51.213273,41.2864621 50.7777716,41.4845141 L44.6092767,44.2888025 C42.5891558,45.2071093 41.2837838,47.2617536 41.2837838,49.5229917 L41.2837838,63.9141888 C41.2837838,64.5138461 41.7590564,65 42.345292,65 C42.9315276,65 43.4068002,64.5138461 43.4068002,63.9141888 L43.4068002,49.5228469 C43.4068002,49.3970376 43.4155753,49.272676 43.4283134,49.1493279 L46.2706078,52.056696 C46.7129029,52.5091173 46.9566251,53.1108015 46.9566251,53.750851 L46.9566251,63.914044 C46.9566251,64.5137013 47.4318977,64.9998552 48.0181333,64.9998552 C48.6043689,64.9998552 49.0796415,64.5137013 49.0796415,63.914044 L49.0796415,53.750851 C49.0796415,52.5308335 48.6151256,51.3837826 47.7718634,50.5212141 L44.3832462,47.0550152 C44.688536,46.7310091 45.054827,46.4624518 45.4715044,46.2729416 L51.53583,43.5159945 L56.0330864,48.1162147 L56.0330864,63.9138992 C56.0330864,64.5135566 56.508359,64.9997105 57.0945946,64.9997105 C57.6808302,64.9997105 58.1561028,64.5135566 58.1561028,63.9138992 L58.1561028,48.1163594 L62.6533592,43.5161393 L68.7175433,46.2730863 C69.1342206,46.4625966 69.5006532,46.7311539 69.805943,47.0553047 L66.4174673,50.5213589 C65.5742052,51.3839273 65.1096892,52.5309783 65.1096892,53.7509958 L65.1096892,63.9141888 C65.1096892,64.5138461 65.5849618,65 66.1711974,65 C66.757433,65 67.2327056,64.5138461 67.2327056,63.9141888 L67.2327056,53.7509958 C67.2327056,53.111091 67.4762863,52.5094069 67.9187229,52.0568407 L70.7608758,49.1496174 C70.7736139,49.2729656 70.782389,49.3970376 70.782389,49.5228469 L70.782389,63.914044 C70.782389,64.5137013 71.2576616,64.9998552 71.8438972,64.9998552 C72.4301328,64.9998552 72.9054054,64.5137013 72.9054054,63.914044 L72.9054054,49.5228469 C72.9052639,47.2616089 71.5998919,45.2069645 69.579771,44.2886577 Z M57.0947361,46.131207 L53.1484732,42.0945952 C53.4485262,41.5781834 53.6179429,40.9808425 53.6179429,40.3557047 L53.6179429,39.913852 C54.6882263,40.3738016 55.8628205,40.6287501 57.0947361,40.6287501 C58.3265102,40.6287501 59.5009629,40.3739464 60.5712463,39.913852 L60.5712463,40.35556 C60.5712463,40.9806977 60.740663,41.5781834 61.0408575,42.0945952 L57.0947361,46.131207 Z M57.0945946,38.4569829 C53.3007643,38.4571276 50.2141815,35.2998782 50.2141815,31.4191889 L50.2141815,30.9307186 C50.8765626,30.6621613 51.5230919,30.2349308 52.1420219,29.6506196 C52.5727112,29.2439471 52.5997443,28.5569905 52.2020325,28.1162959 C51.8046039,27.6757461 51.133023,27.6482389 50.7020507,28.0549114 C50.171155,28.5561219 49.640684,28.8801279 49.1257818,29.0175192 C49.1133267,29.0208491 49.104127,29.0222968 49.0976164,29.0228759 C49.0899736,29.0078193 49.0796415,28.9758241 49.0796415,28.9247186 L49.0796415,26.776984 C49.0796415,22.8962947 52.1662243,19.7390452 55.9600546,19.7390452 L58.2291346,19.7390452 C62.0229649,19.7390452 65.1095476,22.8962947 65.1095476,26.776984 L65.1095476,27.0136908 C65.1095476,27.0488711 65.0888836,27.0794186 65.061709,27.08492 C58.7046902,28.368928 55.5169103,25.9487272 54.4413902,24.8485833 C54.0268359,24.4245378 53.3546889,24.4245378 52.9402761,24.8485833 C52.5257218,25.2726287 52.5257218,25.9601644 52.9402761,26.3840651 C56.2364714,29.7557261 61.0465189,29.8165315 63.9750077,29.4567661 L63.9750077,31.4190441 C63.9750077,35.2997334 60.8884249,38.4569829 57.0945946,38.4569829 Z" id="Shape"></path>
                                    <path d="M33.4983821,26.3513514 L31.1711213,26.3513514 C27.3626124,26.3513514 24.264098,29.3896821 24.264098,33.1242169 L24.264098,35.4062744 C24.264098,35.9958629 24.751557,36.4738537 25.3528241,36.4738537 C25.3618242,36.4738537 25.3879536,36.473569 25.4277284,36.4720032 L25.4277284,37.6883319 C25.4277284,39.7012171 26.3287581,41.5106929 27.7549892,42.7522165 L27.7549892,44.2651899 C27.7549892,44.7280923 27.4926788,45.1444482 27.0703983,45.3515586 L20.9774518,48.3387879 C19.4159283,49.1043134 18.4459459,50.6434781 18.4459459,52.3554483 L18.4459459,63.9324207 C18.4459459,64.5220092 18.9334049,65 19.534672,65 C20.1359391,65 20.6233981,64.5220092 20.6233981,63.9324207 L20.6233981,52.3554483 C20.6233981,52.1487649 20.6515598,51.9473483 20.7029476,51.7541876 L22.3968602,53.415341 C22.8506413,53.8601657 23.1004676,54.451747 23.1004676,55.0809071 L23.1004676,63.9324207 C23.1004676,64.5220092 23.5879265,65 24.1891937,65 C24.7904608,65 25.2779197,64.5220092 25.2779197,63.9324207 L25.2779197,55.0809071 C25.2779197,53.881375 24.8014932,52.7535842 23.936464,51.9054992 L22.1481952,50.1519646 L28.0441549,47.2612445 C28.2370771,47.1665858 28.4164992,47.0549881 28.5840178,46.9307219 L31.2460256,49.5410245 L31.2460256,63.9324207 C31.2460256,64.5220092 31.7334846,65 32.3347517,65 C32.9360188,65 33.4234778,64.5220092 33.4234778,63.9324207 L33.4234778,49.5410245 L36.0854856,46.9307219 C36.2528591,47.0549881 36.4324263,47.1667281 36.6253485,47.2612445 L37.6658803,47.771405 C37.8222214,47.8481284 37.9882884,47.8842838 38.1518876,47.8842838 C38.5512323,47.8842838 38.9357704,47.667921 39.1265152,47.2939836 C39.3955031,46.7665994 39.1774676,46.1253401 38.6396369,45.8617192 L37.5992503,45.3515586 C37.1768246,45.1444482 36.9145142,44.7282346 36.9145142,44.2651899 L36.9145142,42.7522165 C38.3407453,41.5105506 39.241775,39.7010748 39.241775,37.6883319 L39.241775,36.473142 C39.2668883,36.4732843 39.2914209,36.4738537 39.3166793,36.4738537 C39.9179465,36.4738537 40.4054054,35.9958629 40.4054054,35.4062744 L40.4054054,33.1242169 C40.4052602,29.3896821 37.306891,26.3513514 33.4983821,26.3513514 Z M32.3347517,47.5890625 L29.8189235,45.1221002 C29.8923762,44.8468071 29.9325865,44.5596994 29.9325865,44.2653322 L29.9325865,44.038009 C30.6811946,44.311167 31.4903358,44.4611974 32.3347517,44.4611974 C33.1791676,44.4611974 33.9883088,44.311167 34.7369169,44.038009 L34.7369169,44.2653322 C34.7369169,44.5598418 34.776982,44.8468071 34.8505799,45.1221002 L32.3347517,47.5890625 Z M37.0641777,37.6884743 C37.0641777,40.2456826 34.9424684,42.3261812 32.3346065,42.3261812 C29.7267447,42.3261812 27.6050354,40.2456826 27.6050354,37.6884743 L27.6050354,35.9673941 C28.3675791,35.6686142 29.2559796,35.1934703 30.1600577,34.4383358 C31.3033652,35.0216612 33.695369,36.0298831 37.0641777,36.3629678 L37.0641777,37.6884743 Z M38.2279533,34.310084 C33.4951885,34.059701 30.6390972,32.2537839 30.6113709,32.2359909 C30.4271585,32.1155679 30.2169618,32.0566375 30.0077812,32.0566375 C29.7267447,32.0566375 29.4480309,32.1629684 29.2375438,32.3693671 C28.1958507,33.3906847 27.1753515,33.8824829 26.4415501,34.1192008 L26.4415501,33.1242169 C26.4415501,30.5670085 28.5632595,28.48651 31.1711213,28.48651 L33.4983821,28.48651 C36.1062439,28.48651 38.2279533,30.5670085 38.2279533,33.1242169 L38.2279533,34.310084 Z" id="Shape"></path>
                                    <path d="M15.8108108,43.1414079 L15.8108108,40.832712 C15.810953,37.6910884 13.2872978,35.1351351 10.1851983,35.1351351 C7.09930887,35.1351351 4.58674477,37.6645914 4.56058111,40.7836062 C4.56043892,40.7874943 4.56043892,40.7915265 4.56029673,40.7954146 C4.56015453,40.8077991 4.55930137,40.8201835 4.55930137,40.832568 L4.55930137,43.1412639 C4.55930137,45.0144872 5.45682851,46.6790466 6.83895205,47.7181901 L6.83895205,49.3540924 C6.83895205,49.3824615 6.82345293,49.4079505 6.79842683,49.4206229 L1.84965669,51.9266063 C0.708693801,52.5043563 0,53.6657605 0,54.9576337 L0,63.9199589 C0,64.5164296 0.477486714,65 1.06645335,65 C1.65541999,65 2.1329067,64.5164296 2.1329067,63.9199589 L2.1329067,54.9576337 C2.1329067,54.4893279 2.38985086,54.0681119 2.80349257,53.8585839 L6.17504929,52.1513989 L9.11860274,55.1324564 L9.11860274,63.9199589 C9.11860274,64.5164296 9.59608945,65 10.1850561,65 C10.7740227,65 11.2515094,64.5164296 11.2515094,63.9199589 L11.2515094,55.1324564 L14.1952051,52.1512549 L14.2658754,52.1871123 C14.4190181,52.2647312 14.5816878,52.3013086 14.7419402,52.3013086 C15.1331153,52.3013086 15.5097866,52.0824203 15.6966292,51.7041179 C15.9599721,51.1705776 15.7465392,50.5218329 15.2197113,50.2551347 L13.5718275,49.4207669 C13.5468014,49.4080945 13.5311601,49.3826055 13.5311601,49.3542364 L13.5311601,47.7183341 C14.9132837,46.6791906 15.8108108,45.0146312 15.8108108,43.1414079 Z M10.1851983,37.2952174 C12.111213,37.2952174 13.6780463,38.8821578 13.6780463,40.832568 L13.6780463,40.885274 C10.8535091,40.7772699 8.15083187,40.2780029 6.79302346,39.99028 C7.16727749,38.4452451 8.54584619,37.2952174 10.1851983,37.2952174 Z M10.1851983,53.1577092 L8.14912554,51.0955507 C8.66528897,50.6773588 8.97200095,50.0440227 8.97200095,49.3540924 L8.97200095,48.7039077 C9.36303385,48.791319 9.7687127,48.8388408 10.1851983,48.8388408 C10.6016839,48.8388408 11.0073627,48.791319 11.3983956,48.7039077 L11.3983956,49.3540924 C11.3983956,50.0440227 11.7051076,50.6773588 12.221271,51.0956947 L10.1851983,53.1577092 Z M10.1851983,46.6789026 C8.25918353,46.6789026 6.69235027,45.0919622 6.69235027,43.1415519 L6.69235027,42.1771472 C8.21737856,42.4897831 10.8701457,42.9484406 13.6781885,43.0473723 L13.6781885,43.1415519 C13.6780463,45.0919622 12.111213,46.6789026 10.1851983,46.6789026 Z" id="Shape"></path>
                                    <path d="M6.14864865,57.0945946 C5.66354955,57.0945946 5.27027027,57.5765457 5.27027027,58.1710191 L5.27027027,63.9235755 C5.27027027,64.5180488 5.66354955,65 6.14864865,65 C6.63374775,65 7.02702703,64.5180488 7.02702703,63.9235755 L7.02702703,58.1710191 C7.02702703,57.5765457 6.63386486,57.0945946 6.14864865,57.0945946 Z" id="Shape"></path>
                                    <path d="M72.8250498,1.86177776 C72.6789774,1.50508461 72.3538486,1.25425341 71.9727469,1.20454557 L62.8218781,0.009265401 C62.2355897,-0.0680897391 61.697992,0.347479264 61.6217431,0.935951329 C61.5453514,1.52428015 61.9588661,2.06347412 62.5454401,2.13996976 L67.7053781,2.81396223 L0.664451765,30.4314663 C0.1172873,30.6567989 -0.144157934,31.2845215 0.0805907267,31.8334565 C0.25050871,32.248739 0.650172943,32.5 1.07154099,32.5 C1.20704701,32.5 1.34483764,32.4740717 1.47791626,32.4192069 L68.50642,4.80714634 L65.3176734,8.91226903 C64.9541346,9.38026762 65.0376657,10.0552628 65.5041549,10.4201213 C65.6997747,10.5729693 65.93152,10.6470297 66.1615518,10.6470297 C66.4803979,10.6470297 66.7958171,10.5047822 67.0070009,10.2328932 L72.679263,2.93028144 C72.9154347,2.62616114 72.9711221,2.2184709 72.8250498,1.86177776 Z" id="Shape"></path>
                                </g>
                            </g>
                        </g>
                    </g>
                </g>
            </g>
        </g>
    </g>
</svg>