<?xml version="1.0" encoding="UTF-8"?>
<svg width="256px" height="44px" viewBox="0 0 256 44" version="1.1" xmlns="http://www.w3.org/2000/svg" xmlns:xlink="http://www.w3.org/1999/xlink">
    <!-- Generator: Sketch 49.3 (51167) - http://www.bohemiancoding.com/sketch -->
    <title>UB</title>
    <desc>Created with Sketch.</desc>
    <defs>
        <linearGradient x1="50.0361934%" y1="14.1112964%" x2="50.0361934%" y2="73.4936315%" id="linearGradient-1">
            <stop stop-color="#571356" offset="0%"></stop>
            <stop stop-color="#7D0A4E" offset="12.29%"></stop>
            <stop stop-color="#A30046" offset="25.15%"></stop>
            <stop stop-color="#B20A40" offset="32.68%"></stop>
            <stop stop-color="#CB1A2E" offset="45.18%"></stop>
            <stop stop-color="#D41E25" offset="50.92%"></stop>
            <stop stop-color="#BA103C" offset="63.68%"></stop>
            <stop stop-color="#A30046" offset="74.23%"></stop>
            <stop stop-color="#A10046" offset="74.66%"></stop>
            <stop stop-color="#790B4F" offset="86.98%"></stop>
            <stop stop-color="#611154" offset="95.71%"></stop>
            <stop stop-color="#571356" offset="100%"></stop>
        </linearGradient>
        <linearGradient x1="1.81926346%" y1="67.425%" x2="87.0371105%" y2="10.659292%" id="linearGradient-2">
            <stop stop-color="#ED1C24" offset="0%"></stop>
            <stop stop-color="#E11A2A" offset="4.262%"></stop>
            <stop stop-color="#CB123A" offset="15.5%"></stop>
            <stop stop-color="#BA0841" offset="26.1%"></stop>
            <stop stop-color="#AD0044" offset="35.75%"></stop>
            <stop stop-color="#A60046" offset="44.13%"></stop>
            <stop stop-color="#A30046" offset="50.31%"></stop>
            <stop stop-color="#8D044B" offset="60.63%"></stop>
            <stop stop-color="#760C50" offset="73.34%"></stop>
            <stop stop-color="#651053" offset="84.6%"></stop>
            <stop stop-color="#5B1255" offset="93.87%"></stop>
            <stop stop-color="#571356" offset="100%"></stop>
        </linearGradient>
        <linearGradient x1="1.40587438%" y1="70.0500277%" x2="98.4225938%" y2="22.6689197%" id="linearGradient-3">
            <stop stop-color="#00AEEF" offset="0%"></stop>
            <stop stop-color="#00AAEB" offset="11.86%"></stop>
            <stop stop-color="#00A3E1" offset="20.54%"></stop>
            <stop stop-color="#009AD4" offset="28.23%"></stop>
            <stop stop-color="#008DC4" offset="35.32%"></stop>
            <stop stop-color="#007DB0" offset="42.02%"></stop>
            <stop stop-color="#27699A" offset="48.41%"></stop>
            <stop stop-color="#455382" offset="54.58%"></stop>
            <stop stop-color="#52376A" offset="60.4%"></stop>
            <stop stop-color="#571356" offset="65.03%"></stop>
            <stop stop-color="#5E1255" offset="67.34%"></stop>
            <stop stop-color="#6E0E51" offset="71.61%"></stop>
            <stop stop-color="#89054C" offset="77.3%"></stop>
            <stop stop-color="#A30046" offset="82.21%"></stop>
            <stop stop-color="#AE0044" offset="84.55%"></stop>
            <stop stop-color="#CF1338" offset="92%"></stop>
            <stop stop-color="#E31A29" offset="97.34%"></stop>
            <stop stop-color="#ED1C24" offset="100%"></stop>
        </linearGradient>
        <linearGradient x1="49.9518732%" y1="15.1731003%" x2="49.9518732%" y2="78.6607143%" id="linearGradient-4">
            <stop stop-color="#571356" offset="0%"></stop>
            <stop stop-color="#A30046" offset="25.77%"></stop>
            <stop stop-color="#B20940" offset="32.31%"></stop>
            <stop stop-color="#C51734" offset="40.78%"></stop>
            <stop stop-color="#D01D28" offset="47.02%"></stop>
            <stop stop-color="#D41E25" offset="50.31%"></stop>
            <stop stop-color="#CE1C2A" offset="52.94%"></stop>
            <stop stop-color="#B70E3E" offset="63.53%"></stop>
            <stop stop-color="#A90044" offset="71.1%"></stop>
            <stop stop-color="#A30046" offset="74.85%"></stop>
            <stop stop-color="#83084D" offset="84.36%"></stop>
            <stop stop-color="#641153" offset="94.98%"></stop>
            <stop stop-color="#571356" offset="100%"></stop>
        </linearGradient>
        <linearGradient x1="98.6323556%" y1="49.9685215%" x2="-1.07057778%" y2="49.9685215%" id="linearGradient-5">
            <stop stop-color="#ED1C24" offset="0%"></stop>
            <stop stop-color="#E31A29" offset="7.231811%"></stop>
            <stop stop-color="#D01437" offset="21.49%"></stop>
            <stop stop-color="#B20343" offset="41.21%"></stop>
            <stop stop-color="#A30046" offset="50.31%"></stop>
            <stop stop-color="#8D044B" offset="60.63%"></stop>
            <stop stop-color="#760C50" offset="73.34%"></stop>
            <stop stop-color="#651053" offset="84.6%"></stop>
            <stop stop-color="#5B1255" offset="93.87%"></stop>
            <stop stop-color="#571356" offset="100%"></stop>
        </linearGradient>
    </defs>
    <g id="Page-1" stroke="none" stroke-width="1" fill="none" fill-rule="evenodd">
        <g id="Desktop-HD-Copy-8" transform="translate(-150.000000, -80.000000)" fill-rule="nonzero">
            <g id="шапка">
                <g id="UB" transform="translate(150.000000, 80.000000)">
                    <g id="Group">
                        <path d="M15.2315353,37.956044 C10.0045643,37.6901099 5.84190871,33.410989 5.84190871,28.189011 L5.84190871,8.43736264 C5.84190871,7.13186813 6.88257261,6.06813187 8.15975104,6.06813187 C4.63568465,6.06813187 1.60829876,8.0989011 0.0709543568,11.0967033 L0.0709543568,28.189011 C0.0709543568,28.2615385 0.0709543568,28.3340659 0.0709543568,28.4065934 C3.00373444,33.9428571 8.68008299,37.7626374 15.2315353,37.956044 Z" id="Shape" fill="url(#linearGradient-1)"></path>
                        <path d="M8.15975104,6.06813187 L13.8834025,6.06813187 C15.4680498,6.06813187 16.7688797,4.73846154 16.7688797,3.11868132 C16.7688797,1.4989011 15.4680498,0.169230769 13.8834025,0.169230769 L8.15975104,0.169230769 C3.71327801,0.169230769 0.0709543568,3.86813187 0.0709543568,8.43736264 L0.0709543568,11.0967033 C1.60829876,8.0989011 4.6593361,6.06813187 8.15975104,6.06813187 Z" id="Shape" fill="url(#linearGradient-2)"></path>
                        <path d="M52.4116183,10.6615385 C51.3236515,4.69010989 46.2858921,0.169230769 40.2547718,0.169230769 L25.6145228,0.169230769 L25.6145228,28.1648352 C25.6145228,33.556044 21.1680498,37.9318681 15.7282158,37.9318681 C15.5626556,37.9318681 15.373444,37.9318681 15.2078838,37.9076923 C8.65643154,37.7142857 2.98008299,33.8945055 0.0709543568,28.3582418 C0.189211618,36.8923077 7.16639004,43.8065934 15.7282158,43.8065934 C24.3609959,43.8065934 31.3854772,36.7714286 31.3854772,28.1406593 L31.3854772,6.04395604 L40.2547718,6.04395604 C40.3020747,6.04395604 40.373029,6.04395604 40.420332,6.04395604 C40.5149378,6.04395604 40.633195,6.04395604 40.7278008,6.04395604 C45.1979253,6.06813187 49.313278,7.83296703 52.4116183,10.6615385 Z" id="Shape" fill="url(#linearGradient-3)"></path>
                        <path d="M56.8580913,28.6483516 C56.8107884,24.2 54.8950207,20.210989 51.8912863,17.4791209 C52.3643154,16.1010989 52.6244813,14.6263736 52.6244813,13.0791209 C52.6244813,12.2571429 52.553527,11.4351648 52.4116183,10.6615385 C49.313278,7.83296703 45.1979253,6.06813187 40.7514523,6.06813187 C40.6568465,6.06813187 40.5385892,6.06813187 40.4439834,6.06813187 C44.0153527,6.16483516 46.8771784,9.25934066 46.8771784,13.0549451 C46.8771784,13.5384615 46.8298755,13.9978022 46.7589212,14.432967 C46.593361,15.3516484 46.2385892,16.221978 45.7419087,16.9714286 C44.8904564,18.3736264 45.1033195,19.8967033 46.4278008,20.6703297 C47.2792531,21.1296703 48.059751,21.7582418 48.6983402,22.4835165 C50.1883817,24.1274725 51.0871369,26.3516484 51.0871369,28.7934066 C51.0871369,33.4835165 47.7049793,37.3758242 43.4004149,37.8835165 C49.5970954,37.6175824 54.7058091,33.9186813 56.8580913,28.6483516 Z" id="Shape" fill="url(#linearGradient-4)"></path>
                        <path d="M43.4004149,37.9076923 C43.0929461,37.9318681 42.7854772,37.956044 42.4543568,37.956044 L33.1120332,37.956044 C31.5273859,37.956044 30.226556,39.2857143 30.226556,40.9054945 C30.226556,42.5252747 31.5273859,43.8549451 33.1120332,43.8549451 L42.4307054,43.8549451 C50.3775934,43.8549451 56.8344398,37.1098901 56.8344398,28.8175824 C56.8344398,28.7450549 56.8344398,28.6967033 56.8344398,28.6483516 C54.7058091,33.9186813 49.5970954,37.6175824 43.4004149,37.9076923 Z" id="Shape" fill="url(#linearGradient-5)"></path>
                    </g>
                    <g id="Group" transform="translate(80.000000, 6.000000)" fill="#FFFFFF">
                        <g transform="translate(0.241171, 25.565863)" id="Shape">
                            <path d="M1.90525451,9.47866419 C1.90525451,9.6716141 1.85702022,9.69573284 1.63996591,9.69573284 L0.313522894,9.69573284 C0.120585728,9.69573284 0.0482342914,9.64749536 0.0482342914,9.47866419 L0.0482342914,1.15769944 C0.0482342914,0.988868275 0.0964685828,0.868274583 0.313522894,0.771799629 C1.13350585,0.410018553 2.2187774,0.265306122 3.13522894,0.265306122 C5.54694351,0.265306122 6.36692646,1.80890538 6.36692646,3.73840445 C6.36692646,5.64378479 5.42635778,7.21150278 3.3764004,7.21150278 C2.86994034,7.21150278 2.45994886,7.16326531 1.92937166,7.06679035 L1.92937166,9.47866419 L1.90525451,9.47866419 Z M2.86994034,1.85714286 C2.62876888,1.85714286 2.17054311,1.90538033 1.90525451,2.00185529 L1.90525451,5.47495362 C2.33936313,5.59554731 2.70112032,5.61966605 2.96640892,5.61966605 C3.81050902,5.61966605 4.41343766,5.0890538 4.41343766,3.71428571 C4.41343766,2.29128015 3.83462617,1.85714286 2.86994034,1.85714286 Z"></path>
                            <path d="M13.8914759,3.11131725 C13.8914759,3.97959184 13.5297187,4.2690167 12.9267901,4.2690167 L9.64685828,4.2690167 C9.69509257,5.35435993 10.3221384,5.66790353 11.1662385,5.66790353 C11.6726985,5.66790353 12.2032757,5.52319109 12.6373843,5.35435993 C12.8303215,5.28200371 12.9026729,5.30612245 12.9509072,5.45083488 L13.3608987,6.36734694 C13.4332502,6.51205937 13.3850159,6.60853432 13.240313,6.68089054 C12.6132672,7.09090909 11.6726985,7.25974026 10.9733013,7.25974026 C8.75452389,7.25974026 7.69336948,6.19851577 7.69336948,3.81076067 C7.69336948,1.567718 8.92334391,0.265306122 10.8527156,0.265306122 C12.8785558,0.217068646 13.8914759,1.2541744 13.8914759,3.11131725 Z M9.69509257,3.06307978 L12.08269,3.06307978 C12.0585728,2.31539889 11.8415185,1.73654917 10.925067,1.73654917 C10.2497869,1.7606679 9.76744401,2.31539889 9.69509257,3.06307978 Z"></path>
                            <path d="M17.0990563,7.09090909 L15.7002619,7.09090909 C15.555559,7.09090909 15.4590904,7.06679035 15.4590904,6.89795918 L15.4590904,0.60296846 C15.4590904,0.434137291 15.5314418,0.410018553 15.7002619,0.410018553 L17.0990563,0.410018553 C17.2678763,0.410018553 17.3402278,0.434137291 17.3402278,0.60296846 L17.3402278,2.82189239 L17.9431564,2.82189239 C18.4013822,2.82189239 18.7631394,2.67717996 19.0043108,1.97773655 L19.4625366,0.578849722 C19.5107709,0.434137291 19.6072395,0.410018553 19.6795909,0.410018553 L21.1025025,0.410018553 C21.2713225,0.410018553 21.2713225,0.554730983 21.2472054,0.627087199 L20.7648624,2.29128015 C20.6201596,2.82189239 20.3789881,3.25602968 19.8484109,3.47309833 L19.8242938,3.49721707 C20.5719253,3.69016698 20.7648624,4.12430427 20.9336825,4.67903525 L21.5848454,6.89795918 C21.6089625,6.9703154 21.6330797,7.13914657 21.4160254,7.13914657 L19.9448795,7.13914657 C19.8725281,7.13914657 19.7760595,7.11502783 19.7278252,6.99443414 L19.1248965,5.04081633 C18.9560765,4.51020408 18.5702022,4.31725417 18.0637421,4.31725417 L17.3402278,4.31725417 L17.3402278,6.9703154 C17.3161106,7.06679035 17.2678763,7.09090909 17.0990563,7.09090909 Z"></path>
                            <path d="M25.9982831,7.23562152 C23.7795057,7.23562152 22.8148198,5.95732839 22.8148198,3.73840445 C22.8148198,1.54359926 24.0206771,0.217068646 26.0224002,0.217068646 C28.144709,0.217068646 29.2540977,1.54359926 29.2540977,3.69016698 C29.2299806,5.95732839 28.1688262,7.23562152 25.9982831,7.23562152 Z M26.0465174,1.80890538 C25.154183,1.80890538 24.7200743,2.55658627 24.7200743,3.71428571 C24.7200743,4.99257885 25.0818315,5.66790353 25.9982831,5.66790353 C26.9388517,5.66790353 27.3247261,4.82374768 27.3247261,3.76252319 C27.3247261,2.60482375 26.987086,1.80890538 26.0465174,1.80890538 Z"></path>
                            <path d="M32.437561,7.09090909 L31.1593522,7.09090909 C30.9664151,7.09090909 30.8699465,7.01855288 30.8699465,6.82560297 L30.8699465,0.627087199 C30.8699465,0.45825603 30.9664151,0.385899814 31.1593522,0.385899814 L32.437561,0.385899814 C32.6787324,0.385899814 32.7269667,0.434137291 32.7269667,0.627087199 L32.7269667,2.79777365 L35.1145641,2.79777365 L35.1145641,0.627087199 C35.1145641,0.45825603 35.1869156,0.385899814 35.4039699,0.385899814 L36.6821786,0.385899814 C36.9233501,0.385899814 36.9715844,0.434137291 36.9715844,0.627087199 L36.9715844,6.82560297 C36.9715844,7.04267161 36.9233501,7.09090909 36.6821786,7.09090909 L35.4039699,7.09090909 C35.2110327,7.09090909 35.1145641,7.01855288 35.1145641,6.82560297 L35.1145641,4.2690167 L32.7269667,4.2690167 L32.7269667,6.82560297 C32.7269667,7.06679035 32.6787324,7.09090909 32.437561,7.09090909 Z"></path>
                            <path d="M43.4349794,5.28200371 C43.6520337,5.2096475 43.700268,5.2096475 43.7726194,5.4025974 L44.1343766,6.36734694 C44.2067281,6.53617811 44.2308452,6.63265306 44.037908,6.72912801 C43.2902765,7.13914657 42.373825,7.25974026 41.6744278,7.25974026 C39.6727047,7.25974026 38.6115503,6.07792208 38.6115503,3.78664193 C38.6115503,1.61595547 39.8415247,0.241187384 41.7950135,0.241187384 C42.4944107,0.241187384 43.2420422,0.385899814 43.8208537,0.675324675 C44.037908,0.771799629 44.0620252,0.820037106 43.9655566,1.03710575 L43.6037994,2.02597403 C43.531448,2.21892393 43.4349794,2.19480519 43.2179251,2.14656772 C42.7838165,2.00185529 42.3497078,1.90538033 41.9638335,1.90538033 C40.9509134,1.90538033 40.5650391,2.77365492 40.5650391,3.78664193 C40.5650391,4.82374768 40.878562,5.59554731 41.9879507,5.59554731 C42.5185279,5.57142857 43.0491051,5.42671614 43.4349794,5.28200371 Z"></path>
                            <path d="M48.83722,1.90538033 L48.83722,6.84972171 C48.83722,7.06679035 48.7889858,7.11502783 48.5478143,7.11502783 L47.2696056,7.11502783 C47.0525513,7.11502783 46.9801998,7.04267161 46.9801998,6.84972171 L46.9801998,1.90538033 L45.1714139,1.90538033 C44.9784767,1.90538033 44.9061253,1.80890538 44.9061253,1.61595547 L44.9061253,0.675324675 C44.9061253,0.434137291 44.9543596,0.385899814 45.1714139,0.385899814 L50.6942403,0.385899814 C50.8871774,0.385899814 50.9595289,0.45825603 50.9595289,0.675324675 L50.9595289,1.61595547 C50.9595289,1.80890538 50.8871774,1.90538033 50.6942403,1.90538033 L48.83722,1.90538033 Z"></path>
                            <path d="M53.9982892,9.47866419 C53.9982892,9.6716141 53.9500549,9.69573284 53.7330006,9.69573284 L52.4065576,9.69573284 C52.2136204,9.69573284 52.141269,9.64749536 52.141269,9.47866419 L52.141269,1.15769944 C52.141269,0.988868275 52.1895033,0.868274583 52.4065576,0.771799629 C53.2265406,0.410018553 54.3118121,0.265306122 55.2282637,0.265306122 C57.6399782,0.265306122 58.4599612,1.80890538 58.4599612,3.73840445 C58.4599612,5.64378479 57.5193925,7.21150278 55.4694351,7.21150278 C54.9629751,7.21150278 54.5529836,7.16326531 54.0224064,7.06679035 L54.0224064,9.47866419 L53.9982892,9.47866419 Z M54.9629751,1.85714286 C54.7218036,1.85714286 54.2635778,1.90538033 53.9982892,2.00185529 L53.9982892,5.47495362 C54.4323978,5.59554731 54.794155,5.61966605 55.0594436,5.61966605 C55.9035437,5.61966605 56.5064724,5.0890538 56.5064724,3.71428571 C56.5064724,2.29128015 55.9276609,1.85714286 54.9629751,1.85714286 Z"></path>
                            <path d="M63.6933818,8.20037106 C63.3075075,9.3580705 62.6081102,9.84044527 61.402253,9.84044527 C61.0646129,9.84044527 60.58227,9.79220779 60.1481614,9.6716141 C59.9552242,9.62337662 59.8828728,9.57513915 59.9552242,9.38218924 L60.1722785,8.36920223 C60.2205128,8.17625232 60.2687471,8.17625232 60.4616843,8.2244898 C60.7269729,8.27272727 60.8957929,8.29684601 61.0887301,8.29684601 C61.6916587,8.29684601 62.0051816,8.15213358 62.1740016,7.54916512 L62.4151731,6.84972171 L62.0534159,6.84972171 C61.6675416,6.84972171 61.5469558,6.75324675 61.3781358,6.29499072 L59.4487642,0.627087199 C59.3764127,0.45825603 59.4969984,0.385899814 59.6175842,0.385899814 L61.1128472,0.385899814 C61.3781358,0.385899814 61.4263701,0.434137291 61.4746044,0.627087199 L62.1981188,3.20779221 L62.8010474,5.42671614 L62.8733988,5.42671614 L63.5245618,3.15955473 L64.2963104,0.651205937 C64.3445447,0.45825603 64.392779,0.385899814 64.6580676,0.385899814 L66.1774478,0.385899814 C66.3221507,0.385899814 66.370385,0.45825603 66.3221507,0.578849722 L63.6933818,8.20037106 Z"></path>
                            <path d="M69.0715053,7.09090909 L67.6727108,7.09090909 C67.528008,7.09090909 67.4315394,7.06679035 67.4315394,6.89795918 L67.4315394,0.60296846 C67.4315394,0.434137291 67.5038908,0.410018553 67.6727108,0.410018553 L69.0715053,0.410018553 C69.2403253,0.410018553 69.3126767,0.434137291 69.3126767,0.60296846 L69.3126767,2.82189239 L69.9156054,2.82189239 C70.3738312,2.82189239 70.7355883,2.67717996 70.9767598,1.97773655 L71.4349856,0.578849722 C71.4832199,0.434137291 71.5796884,0.410018553 71.6520399,0.410018553 L73.0749515,0.410018553 C73.2437715,0.410018553 73.2437715,0.554730983 73.2196543,0.627087199 L72.7373114,2.29128015 C72.5926086,2.82189239 72.3514371,3.25602968 71.8208599,3.47309833 L71.7967427,3.49721707 C72.5443743,3.69016698 72.7373114,4.12430427 72.9061315,4.67903525 L73.5572944,6.89795918 C73.5814115,6.9703154 73.6055287,7.13914657 73.3884744,7.13914657 L71.9173285,7.13914657 C71.844977,7.13914657 71.7485085,7.11502783 71.7002742,6.99443414 L71.0973455,5.04081633 C70.9285255,4.51020408 70.5426512,4.31725417 70.0361911,4.31725417 L69.3126767,4.31725417 L69.3126767,6.9703154 C69.3126767,7.06679035 69.2403253,7.09090909 69.0715053,7.09090909 Z"></path>
                            <path d="M81.1541953,5.59554731 L81.7571239,5.64378479 C82.1188811,5.66790353 82.1671154,5.88497217 82.1671154,6.15027829 L82.0224125,8.85157699 C82.0224125,8.97217069 81.9500611,9.0445269 81.8294754,9.0445269 L80.6959695,9.0445269 C80.5512666,9.0445269 80.5030323,8.97217069 80.5030323,8.85157699 L80.4306809,7.09090909 L75.8001889,7.09090909 C75.1972603,7.09090909 75.0525574,6.75324675 75.0525574,6.29499072 L75.0525574,0.627087199 C75.0525574,0.45825603 75.149026,0.385899814 75.317846,0.385899814 L76.644289,0.385899814 C76.8854605,0.385899814 76.9095776,0.434137291 76.9095776,0.627087199 L76.9095776,5.61966605 L79.2971751,5.61966605 L79.2971751,0.627087199 C79.2971751,0.45825603 79.3695265,0.385899814 79.5624637,0.385899814 L80.9130238,0.385899814 C81.105961,0.385899814 81.1783124,0.434137291 81.1783124,0.627087199 L81.1783124,5.59554731 L81.1541953,5.59554731 Z"></path>
                            <path d="M83.5659099,0.60296846 C83.5659099,0.45825603 83.6382613,0.410018553 83.8070813,0.410018553 L85.1817586,0.410018553 C85.3746958,0.410018553 85.4229301,0.45825603 85.4229301,0.60296846 L85.4229301,4.51020408 L85.4952815,4.51020408 C86.1705616,3.42486085 86.2670302,3.20779221 86.4840845,2.87012987 C86.7976074,2.36363636 87.2075989,1.71243043 87.7622932,0.820037106 C88.0034647,0.482374768 88.1240504,0.410018553 88.558159,0.410018553 L89.1852048,0.410018553 C89.6675477,0.410018553 89.9087192,0.554730983 89.9087192,1.13358071 L89.9087192,6.92207792 C89.9087192,7.09090909 89.8363677,7.11502783 89.6675477,7.11502783 L88.2928704,7.11502783 C88.0999332,7.11502783 88.051699,7.09090909 88.051699,6.92207792 L88.051699,3.08719852 L87.9793475,3.08719852 C87.5934732,3.66604824 87.2558331,4.2690167 86.8699588,4.84786642 C86.4840845,5.45083488 86.0982101,6.07792208 85.6882187,6.70500928 C85.4470472,7.06679035 85.3023443,7.11502783 84.8923529,7.11502783 L84.2894242,7.11502783 C83.7106127,7.11502783 83.5659099,6.87384045 83.5659099,6.39146568 L83.5659099,0.60296846 Z"></path>
                            <path d="M91.7657394,0.60296846 C91.7657394,0.45825603 91.8380908,0.410018553 92.0069108,0.410018553 L93.3815882,0.410018553 C93.5745253,0.410018553 93.6227596,0.45825603 93.6227596,0.60296846 L93.6227596,4.51020408 L93.695111,4.51020408 C94.3703911,3.42486085 94.4668597,3.20779221 94.683914,2.87012987 C94.9974369,2.36363636 95.4074284,1.71243043 95.9621227,0.820037106 C96.2032942,0.482374768 96.3238799,0.410018553 96.7579885,0.410018553 L97.3850343,0.410018553 C97.8673773,0.410018553 98.1085487,0.554730983 98.1085487,1.13358071 L98.1085487,6.92207792 C98.1085487,7.09090909 98.0361973,7.11502783 97.8673773,7.11502783 L96.4926999,7.11502783 C96.2997628,7.11502783 96.2515285,7.09090909 96.2515285,6.92207792 L96.2515285,3.08719852 L96.1791771,3.08719852 C95.7933027,3.66604824 95.4556627,4.2690167 95.0697883,4.84786642 C94.683914,5.45083488 94.2980397,6.07792208 93.8880482,6.70500928 C93.6468768,7.06679035 93.5021739,7.11502783 93.0921824,7.11502783 L92.4892538,7.11502783 C91.9104423,7.11502783 91.7657394,6.87384045 91.7657394,6.39146568 L91.7657394,0.60296846 Z"></path>
                            <path d="M103.896664,0.60296846 C103.896664,0.45825603 103.969015,0.410018553 104.137835,0.410018553 L105.512512,0.410018553 C105.70545,0.410018553 105.753684,0.45825603 105.753684,0.60296846 L105.753684,4.51020408 L105.826035,4.51020408 C106.501315,3.42486085 106.597784,3.20779221 106.814838,2.87012987 C107.128361,2.36363636 107.538353,1.71243043 108.093047,0.820037106 C108.334218,0.482374768 108.454804,0.410018553 108.888913,0.410018553 L109.515959,0.410018553 C109.998302,0.410018553 110.239473,0.554730983 110.239473,1.13358071 L110.239473,6.92207792 C110.239473,7.09090909 110.167122,7.11502783 109.998302,7.11502783 L108.623624,7.11502783 C108.430687,7.11502783 108.382453,7.09090909 108.382453,6.92207792 L108.382453,3.08719852 L108.310101,3.08719852 C107.924227,3.66604824 107.586587,4.2690167 107.200713,4.84786642 C106.814838,5.45083488 106.428964,6.07792208 106.018972,6.70500928 C105.777801,7.06679035 105.633098,7.11502783 105.223107,7.11502783 L104.620178,7.11502783 C104.041367,7.11502783 103.896664,6.87384045 103.896664,6.39146568 L103.896664,0.60296846 Z"></path>
                            <path d="M117.884608,9.47866419 C117.884608,9.6716141 117.836374,9.69573284 117.61932,9.69573284 L116.292877,9.69573284 C116.099939,9.69573284 116.027588,9.64749536 116.027588,9.47866419 L116.027588,1.15769944 C116.027588,0.988868275 116.075822,0.868274583 116.292877,0.771799629 C117.11286,0.410018553 118.198131,0.265306122 119.114583,0.265306122 C121.526297,0.265306122 122.34628,1.80890538 122.34628,3.73840445 C122.34628,5.64378479 121.405711,7.21150278 119.355754,7.21150278 C118.849294,7.21150278 118.439303,7.16326531 117.908725,7.06679035 L117.908725,9.47866419 L117.884608,9.47866419 Z M118.849294,1.85714286 C118.608123,1.85714286 118.149897,1.90538033 117.884608,2.00185529 L117.884608,5.47495362 C118.318717,5.59554731 118.680474,5.61966605 118.945763,5.61966605 C119.789863,5.61966605 120.392791,5.0890538 120.392791,3.71428571 C120.392791,2.29128015 119.81398,1.85714286 118.849294,1.85714286 Z"></path>
                            <path d="M129.388487,6.75324675 C128.616738,7.11502783 127.531466,7.23562152 126.687366,7.23562152 C124.396238,7.23562152 123.720957,6.29499072 123.720957,5.11317254 C123.720957,3.81076067 124.589175,2.82189239 126.422078,2.82189239 L127.820872,2.82189239 L127.820872,2.62894249 C127.820872,2.14656772 127.652052,1.71243043 126.711484,1.71243043 C126.180906,1.71243043 125.38504,1.83302412 124.902698,1.95361781 C124.685643,2.00185529 124.613292,1.95361781 124.589175,1.78478664 L124.396238,0.892393321 C124.348003,0.723562152 124.396238,0.651205937 124.516823,0.60296846 C125.264455,0.337662338 126.156789,0.217068646 126.976772,0.217068646 C128.809675,0.217068646 129.677892,1.01298701 129.677892,2.55658627 L129.677892,6.27087199 C129.653775,6.48794063 129.629658,6.63265306 129.388487,6.75324675 Z M127.796755,4.05194805 L126.783835,4.05194805 C126.301492,4.05194805 125.626212,4.14842301 125.626212,4.96846011 C125.626212,5.54730983 126.060321,5.76437848 126.735601,5.76437848 C126.928538,5.76437848 127.459115,5.716141 127.796755,5.59554731 L127.796755,4.05194805 Z"></path>
                            <path d="M132.017256,2.05009276 C131.824318,2.12244898 131.751967,2.09833024 131.703733,1.97773655 L131.39021,1.13358071 C131.293741,0.940630798 131.293741,0.844155844 131.486678,0.771799629 C132.113724,0.45825603 133.07841,0.241187384 133.946627,0.241187384 C135.514242,0.241187384 136.527162,0.820037106 136.527162,2.05009276 C136.527162,2.67717996 136.11717,3.20779221 135.562476,3.52133581 L135.562476,3.56957328 C136.28599,3.81076067 136.744216,4.36549165 136.744216,5.0890538 C136.744216,6.53617811 135.369539,7.23562152 133.729573,7.23562152 C132.90959,7.23562152 131.872553,7.11502783 131.173155,6.77736549 C130.980218,6.68089054 131.004335,6.58441558 131.05257,6.46382189 L131.39021,5.52319109 C131.438444,5.4025974 131.510796,5.35435993 131.72785,5.42671614 C132.330778,5.61966605 133.126644,5.74025974 133.560753,5.74025974 C134.549556,5.74025974 134.887196,5.33024119 134.887196,4.92022263 C134.887196,4.48608534 134.477204,4.22077922 133.41605,4.22077922 C133.102527,4.19666048 132.933707,4.10018553 132.933707,3.81076067 L132.933707,3.42486085 C132.933707,3.13543599 133.126644,3.03896104 133.440167,3.03896104 C134.284267,2.99072356 134.670142,2.74953618 134.670142,2.36363636 C134.670142,1.90538033 134.211916,1.80890538 133.608987,1.80890538 C133.24723,1.78478664 132.57195,1.8812616 132.017256,2.05009276 Z"></path>
                            <path d="M143.424665,3.44897959 C144.196414,3.76252319 144.461703,4.41372913 144.461703,5.04081633 C144.461703,6.27087199 143.424665,7.11502783 142.001754,7.11502783 L139.059462,7.11502783 C138.456533,7.11502783 138.287713,6.89795918 138.287713,6.46382189 L138.287713,1.13358071 C138.287713,0.699443414 138.408299,0.410018553 139.011228,0.410018553 L141.977637,0.410018553 C143.183494,0.410018553 144.14818,0.868274583 144.14818,2.09833024 C144.14818,2.60482375 143.882891,3.11131725 143.400548,3.37662338 L143.400548,3.44897959 L143.424665,3.44897959 Z M140.120617,2.91836735 L141.664114,2.91836735 C141.929402,2.91836735 142.242925,2.77365492 142.242925,2.36363636 C142.242925,2.0742115 142.049988,1.83302412 141.712348,1.83302412 L140.120617,1.83302412 L140.120617,2.91836735 Z M141.760582,4.14842301 L140.144734,4.14842301 L140.144734,5.64378479 L141.760582,5.64378479 C142.435863,5.64378479 142.580565,5.16141002 142.580565,4.87198516 C142.556448,4.4619666 142.29116,4.14842301 141.760582,4.14842301 Z"></path>
                            <path d="M146.101669,0.60296846 C146.101669,0.45825603 146.17402,0.410018553 146.34284,0.410018553 L147.717517,0.410018553 C147.910455,0.410018553 147.958689,0.45825603 147.958689,0.60296846 L147.958689,4.51020408 L148.03104,4.51020408 C148.70632,3.42486085 148.802789,3.20779221 149.019843,2.87012987 C149.333366,2.36363636 149.743358,1.71243043 150.298052,0.820037106 C150.539223,0.482374768 150.659809,0.410018553 151.093918,0.410018553 L151.720964,0.410018553 C152.203307,0.410018553 152.444478,0.554730983 152.444478,1.13358071 L152.444478,6.92207792 C152.444478,7.09090909 152.372127,7.11502783 152.203307,7.11502783 L150.828629,7.11502783 C150.635692,7.11502783 150.587458,7.09090909 150.587458,6.92207792 L150.587458,3.08719852 L150.515106,3.08719852 C150.129232,3.66604824 149.791592,4.2690167 149.405718,4.84786642 C149.019843,5.45083488 148.633969,6.07792208 148.223977,6.70500928 C147.982806,7.06679035 147.838103,7.11502783 147.428112,7.11502783 L146.825183,7.11502783 C146.246372,7.11502783 146.101669,6.87384045 146.101669,6.39146568 L146.101669,0.60296846 Z"></path>
                            <path d="M157.533196,1.90538033 L157.533196,6.84972171 C157.533196,7.06679035 157.484961,7.11502783 157.24379,7.11502783 L155.989698,7.11502783 C155.772644,7.11502783 155.700293,7.04267161 155.700293,6.84972171 L155.700293,1.90538033 L153.891507,1.90538033 C153.69857,1.90538033 153.626218,1.80890538 153.626218,1.61595547 L153.626218,0.675324675 C153.626218,0.434137291 153.674452,0.385899814 153.891507,0.385899814 L159.414333,0.385899814 C159.60727,0.385899814 159.679622,0.45825603 159.679622,0.675324675 L159.679622,1.61595547 C159.679622,1.80890538 159.60727,1.90538033 159.414333,1.90538033 L157.533196,1.90538033 Z"></path>
                            <path d="M160.837245,0.60296846 C160.837245,0.45825603 160.909596,0.410018553 161.078416,0.410018553 L162.453093,0.410018553 C162.646031,0.410018553 162.694265,0.45825603 162.694265,0.60296846 L162.694265,4.51020408 L162.766616,4.51020408 C163.441896,3.42486085 163.538365,3.20779221 163.755419,2.87012987 C164.068942,2.36363636 164.478934,1.71243043 165.033628,0.820037106 C165.274799,0.482374768 165.395385,0.410018553 165.829494,0.410018553 L166.45654,0.410018553 C166.938883,0.410018553 167.180054,0.554730983 167.180054,1.13358071 L167.180054,6.92207792 C167.180054,7.09090909 167.107703,7.11502783 166.938883,7.11502783 L165.564205,7.11502783 C165.371268,7.11502783 165.323034,7.09090909 165.323034,6.92207792 L165.323034,3.08719852 L165.250682,3.08719852 C164.864808,3.66604824 164.527168,4.2690167 164.141294,4.84786642 C163.755419,5.45083488 163.369545,6.07792208 162.959553,6.70500928 C162.718382,7.06679035 162.573679,7.11502783 162.163688,7.11502783 L161.560759,7.11502783 C160.981948,7.11502783 160.837245,6.87384045 160.837245,6.39146568 L160.837245,0.60296846 Z"></path>
                            <path d="M173.112872,4.55844156 L172.124069,4.55844156 C171.545257,4.55844156 171.159383,4.70315399 170.966446,5.30612245 C170.821743,5.81261596 170.652923,6.31910946 170.50822,6.82560297 C170.435869,7.06679035 170.242931,7.09090909 170.098229,7.09090909 L168.82002,7.09090909 C168.675317,7.09090909 168.627083,7.04267161 168.627083,6.9703154 L168.627083,6.92207792 C168.627083,6.89795918 168.627083,6.87384045 168.6512,6.87384045 C168.82002,6.29499072 169.012957,5.716141 169.205894,5.13729128 C169.350597,4.72727273 169.519417,4.29313544 170.194697,4.12430427 L170.194697,4.10018553 C169.302363,3.81076067 169.037074,3.15955473 169.037074,2.41187384 C169.037074,1.27829314 169.929409,0.410018553 171.35232,0.410018553 L174.222261,0.410018553 C174.680486,0.410018553 174.897541,0.60296846 174.945775,0.916512059 C174.969892,1.06122449 174.969892,1.23005566 174.969892,1.37476809 L174.969892,6.92207792 C174.969892,7.06679035 174.897541,7.11502783 174.704603,7.11502783 L173.37816,7.11502783 C173.161106,7.11502783 173.112872,7.06679035 173.112872,6.92207792 L173.112872,4.55844156 Z M171.786429,3.3283859 L173.112872,3.3283859 L173.112872,1.83302412 L171.738195,1.83302412 C171.062914,1.83302412 170.869977,2.26716141 170.869977,2.58070501 C170.894094,3.0148423 171.1835,3.3283859 171.786429,3.3283859 Z"></path>
                        </g>
                        <g id="Shape">
                            <path d="M12.7097358,1.27829314 C12.9750244,1.27829314 13.071493,1.42300557 12.9750244,1.66419295 L8.46511814,14.1818182 C7.66925233,16.4007421 6.4392779,17.148423 4.17226621,17.148423 C3.56933756,17.148423 2.7975889,17.0760668 2.04995738,16.8348794 C1.66408305,16.7142857 1.59173162,16.6660482 1.66408305,16.3525046 L2.02584024,14.5194805 C2.09819168,14.1818182 2.19466026,14.2300557 2.5323003,14.2782931 C3.01464321,14.3506494 3.3764004,14.3747681 3.73815758,14.3747681 C4.72696056,14.3506494 5.18518633,14.2541744 5.54694351,13.2653061 L5.9087007,12.2764378 L5.3298892,12.2764378 C4.63049197,12.2764378 4.41343766,12.1317254 4.09991477,11.3358071 L0.217054311,1.68831169 C0.0964685828,1.39888683 0.265288603,1.27829314 0.530577205,1.27829314 L3.08699465,1.27829314 C3.59345471,1.27829314 3.71404044,1.37476809 3.81050902,1.71243043 L5.42635778,6.17439703 L6.65633221,9.79220779 L6.80103509,9.79220779 L7.95865808,5.98144712 L9.33333539,1.71243043 C9.45392111,1.35064935 9.5503897,1.2541744 10.0086155,1.2541744 L12.7097358,1.2541744 L12.7097358,1.27829314 Z"></path>
                            <path d="M16.9543534,20.8627087 C16.9543534,21.2003711 16.882002,21.2244898 16.4961277,21.2244898 L14.2049988,21.2244898 C13.8673588,21.2244898 13.746773,21.1521336 13.746773,20.8627087 L13.746773,6.51205937 C13.746773,6.19851577 13.8191245,6.0296846 14.1808817,5.83673469 C15.5796761,5.2096475 17.4849306,4.96846011 19.0525451,4.96846011 C23.2006942,4.96846011 24.6236058,7.62152134 24.6236058,10.974026 C24.6236058,14.2782931 23.007757,16.9554731 19.4625366,16.9554731 C18.5943193,16.9554731 17.8949221,16.8831169 16.9784706,16.690167 L16.9784706,20.8627087 L16.9543534,20.8627087 Z M18.6425536,7.71799629 C18.2325621,7.71799629 17.4608135,7.81447124 16.9784706,7.95918367 L16.9784706,13.9647495 C17.7261021,14.1576994 18.3531479,14.2059369 18.8113736,14.2059369 C20.2825195,14.2059369 21.2954397,13.3135436 21.2954397,10.9016698 C21.2713225,8.48979592 20.2825195,7.71799629 18.6425536,7.71799629 Z"></path>
                            <path d="M36.58571,16.1836735 C35.259267,16.8107607 33.4022468,17.0037106 31.9311009,17.0037106 C27.975889,17.0037106 26.7941489,15.3877551 26.7941489,13.3376623 C26.7941489,11.0705009 28.2894119,9.40630798 31.4246408,9.40630798 L33.8363554,9.40630798 L33.8363554,9.0445269 C33.8363554,8.2244898 33.5469497,7.47680891 31.9311009,7.47680891 C31.0387665,7.47680891 29.6399721,7.66975881 28.8199891,7.88682746 C28.4341148,7.98330241 28.3376462,7.88682746 28.2652948,7.5974026 L27.9035376,6.05380334 C27.807069,5.74025974 27.9035376,5.64378479 28.1205919,5.54730983 C29.4229178,5.0890538 30.9422979,4.8961039 32.3652095,4.8961039 C35.5245556,4.8961039 36.9957015,6.27087199 36.9957015,8.94805195 L36.9957015,15.3395176 C37.0439358,15.7012987 36.9957015,15.9666048 36.58571,16.1836735 Z M33.8363554,11.528757 L32.0999209,11.528757 C31.279938,11.528757 30.0981978,11.6734694 30.0981978,13.096475 C30.0981978,14.109462 30.8458294,14.471243 32.0034523,14.471243 C32.3410924,14.471243 33.2575439,14.3988868 33.8363554,14.1818182 L33.8363554,11.528757 Z"></path>
                            <path d="M49.0301572,5.2096475 C50.0671945,5.2096475 50.3566002,5.61966605 50.3566002,6.56029685 L50.3566002,16.3525046 C50.3566002,16.7142857 50.2360145,16.7625232 49.8501402,16.7625232 L47.6313628,16.7625232 C47.2454884,16.7625232 47.1249027,16.6419295 47.1249027,16.3283859 L47.1249027,7.81447124 L44.4237824,7.81447124 L44.3514309,8.94805195 C44.037908,14.0853432 43.6761509,16.1595547 40.227399,17.2207792 C39.8415247,17.3413729 39.6727047,17.244898 39.5762361,16.9554731 L38.9733075,15.4601113 C38.8527217,15.0983302 38.8527217,14.9777365 39.2144789,14.7847866 C40.7820934,14.0612245 41.0956163,13.3858998 41.3609049,8.89981447 L41.5056077,6.51205937 C41.553842,5.54730983 41.8914821,5.2096475 42.8802851,5.2096475 L49.0301572,5.2096475 Z"></path>
                            <path d="M54.794155,16.7625232 C53.6606492,16.7625232 53.4194777,16.2801484 53.4194777,15.4842301 L53.4194777,5.61966605 C53.4194777,5.30612245 53.5641806,5.2096475 53.9018206,5.2096475 L56.0964809,5.2096475 C56.5064724,5.2096475 56.602941,5.28200371 56.602941,5.61966605 L56.602941,8.80333952 L59.3281784,8.80333952 C63.6451475,8.80333952 64.0069047,11.6011132 64.0069047,12.7588126 C64.0069047,15.025974 62.1257673,16.7384045 59.6658185,16.7384045 L54.794155,16.7384045 L54.794155,16.7625232 Z M59.2075927,11.2634508 L56.602941,11.2634508 L56.602941,14.2541744 L59.1834755,14.2541744 C60.4375671,14.2541744 60.75109,13.3135436 60.75109,12.7346939 C60.7269729,11.9146568 60.2205128,11.2634508 59.2075927,11.2634508 Z"></path>
                            <path d="M74.329043,13.6270872 C74.6908002,13.5064935 74.7872688,13.5064935 74.9078545,13.8200371 L75.5349003,15.4601113 C75.6554861,15.7495362 75.6796032,15.8942486 75.3901975,16.0871985 C74.1119887,16.7866419 72.5202571,16.9795918 71.3143998,16.9795918 C67.8897651,16.9795918 66.0327449,14.9536178 66.0327449,10.9981447 C66.0327449,7.23562152 68.1550537,4.8961039 71.507337,4.8961039 C72.7131943,4.8961039 73.991403,5.16141002 74.980206,5.64378479 C75.3419632,5.81261596 75.3660803,5.90909091 75.2213774,6.27087199 L74.5943316,7.95918367 C74.4737459,8.29684601 74.3049259,8.27272727 73.9190516,8.15213358 C73.1714201,7.9109462 72.4237885,7.76623377 71.7485085,7.76623377 C70.012074,7.76623377 69.360911,9.26159555 69.360911,10.9981447 C69.360911,12.8070501 69.8914882,14.1335807 71.8208599,14.1335807 C72.7373114,14.1335807 73.7019973,13.8682746 74.329043,13.6270872 Z"></path>
                            <path d="M80.6959695,16.7625232 L78.3083721,16.7625232 C78.0430835,16.7625232 77.9224978,16.7142857 77.9224978,16.4007421 L77.9224978,5.54730983 C77.9224978,5.23376623 78.0430835,5.18552876 78.3083721,5.18552876 L80.6959695,5.18552876 C80.9853753,5.18552876 81.0818438,5.23376623 81.0818438,5.54730983 L81.0818438,9.38218924 L82.1188811,9.38218924 C82.8906298,9.38218924 83.5417927,9.14100186 83.9517842,7.9109462 L84.7235328,5.49907236 C84.7958843,5.23376623 84.9647043,5.2096475 85.1094072,5.2096475 L87.5452389,5.2096475 C87.8346446,5.2096475 87.8346446,5.45083488 87.8105275,5.57142857 L86.9905445,8.44155844 C86.7493731,9.33395176 86.3152645,10.1057514 85.4229301,10.4675325 L85.3988129,10.5157699 C86.6770216,10.8534323 87.0146617,11.6011132 87.2799503,12.541744 L88.389339,16.3525046 C88.4134561,16.4730983 88.4616904,16.7384045 88.0999332,16.7384045 L85.5676329,16.7384045 C85.4470472,16.7384045 85.25411,16.7142857 85.2058758,16.4730983 L84.1688385,13.096475 C83.8794327,12.1799629 83.2282698,11.8423006 82.3118183,11.8423006 L81.0577267,11.8423006 L81.0577267,16.4007421 C81.0818438,16.7142857 80.9612581,16.7625232 80.6959695,16.7625232 Z"></path>
                            <path d="M90.7287021,5.54730983 C90.7287021,5.28200371 90.8492879,5.18552876 91.1145765,5.18552876 L93.4780567,5.18552876 C93.8398139,5.18552876 93.8880482,5.25788497 93.8880482,5.54730983 L93.8880482,12.3005566 L94.0086339,12.3005566 C95.1421398,10.419295 95.3591941,10.0575139 95.7209513,9.47866419 C96.2756456,8.61038961 96.9509257,7.50092764 97.9156115,5.93320965 C98.325603,5.33024119 98.5426573,5.2096475 99.2902888,5.2096475 L100.37556,5.2096475 C101.195543,5.2096475 101.605535,5.47495362 101.605535,6.43970315 L101.605535,16.4007421 C101.605535,16.690167 101.484949,16.7625232 101.219661,16.7625232 L98.8320631,16.7625232 C98.494423,16.7625232 98.4220716,16.7142857 98.4220716,16.4007421 L98.4220716,9.79220779 L98.3014859,9.79220779 C97.6503229,10.8051948 97.0473943,11.8423006 96.4203485,12.8311688 C95.7450684,13.8923933 95.0697883,14.9536178 94.3703911,16.0148423 C93.9845168,16.6419295 93.7192282,16.7384045 92.9957138,16.7384045 L91.9586766,16.7384045 C90.9457564,16.7384045 90.7287021,16.3283859 90.7287021,15.5083488 L90.7287021,5.54730983 Z"></path>
                            <path d="M104.692529,5.54730983 C104.692529,5.28200371 104.813115,5.18552876 105.078404,5.18552876 L107.441884,5.18552876 C107.803641,5.18552876 107.851876,5.25788497 107.851876,5.54730983 L107.851876,12.3005566 L107.972461,12.3005566 C109.105967,10.419295 109.323021,10.0575139 109.684779,9.47866419 C110.239473,8.61038961 110.914753,7.50092764 111.879439,5.93320965 C112.28943,5.33024119 112.506485,5.2096475 113.254116,5.2096475 L114.339388,5.2096475 C115.159371,5.2096475 115.569362,5.47495362 115.569362,6.43970315 L115.569362,16.4007421 C115.569362,16.690167 115.448776,16.7625232 115.183488,16.7625232 L112.79589,16.7625232 C112.45825,16.7625232 112.385899,16.7142857 112.385899,16.4007421 L112.385899,9.79220779 L112.265313,9.79220779 C111.61415,10.8051948 111.011222,11.8423006 110.384176,12.8311688 C109.708896,13.8923933 109.033616,14.9536178 108.334218,16.0148423 C107.948344,16.6419295 107.683056,16.7384045 106.959541,16.7384045 L105.922504,16.7384045 C104.909584,16.7384045 104.692529,16.3283859 104.692529,15.5083488 L104.692529,5.54730983 Z M105.970738,1.567718 C105.898387,1.47124304 105.777801,1.30241187 106.04309,1.08534323 L106.911307,0.241187384 C107.200713,0.0241187384 107.248947,0.120593692 107.466001,0.313543599 C108.382453,1.2541744 109.347139,1.80890538 110.191239,1.80890538 C110.890636,1.80890538 111.590033,1.61595547 112.988828,0.265306122 C113.278233,0.0241187384 113.350585,0.0964749536 113.495288,0.217068646 L114.339388,0.940630798 C114.628794,1.20593692 114.508208,1.32653061 114.435856,1.4471243 C113.061179,3.25602968 111.638267,4.10018553 110.070653,4.10018553 C108.285984,4.12430427 106.88719,2.89424861 105.970738,1.567718 Z"></path>
                            <path d="M123.600372,15.4359926 L123.600372,2.84601113 C123.600372,1.83302412 123.962129,1.35064935 124.999166,1.35064935 L133.58487,1.35064935 C133.92251,1.35064935 133.970744,1.47124304 133.970744,1.83302412 L133.970744,3.78664193 C133.970744,4.10018553 133.874276,4.19666048 133.58487,4.19666048 L126.952655,4.19666048 L126.952655,6.92207792 L130.160235,6.92207792 C135.393656,6.92207792 135.755413,10.3951763 135.755413,11.890538 C135.755413,14.6883117 133.440167,16.7384045 130.473758,16.7384045 L124.926815,16.7384045 C123.841543,16.7625232 123.600372,16.3766234 123.600372,15.4359926 Z M130.160235,9.74397032 L126.952655,9.74397032 L126.952655,13.8441558 L130.136118,13.8441558 C131.800201,13.8441558 132.258427,12.5899814 132.258427,11.7458256 C132.258427,10.5881262 131.510796,9.74397032 130.160235,9.74397032 Z"></path>
                            <path d="M147.548697,16.1836735 C146.222254,16.8107607 144.365234,17.0037106 142.894088,17.0037106 C138.938876,17.0037106 137.757136,15.3877551 137.757136,13.3376623 C137.757136,11.0705009 139.252399,9.40630798 142.387628,9.40630798 L144.799343,9.40630798 L144.799343,9.0445269 C144.799343,8.2244898 144.509937,7.47680891 142.894088,7.47680891 C142.001754,7.47680891 140.602959,7.66975881 139.782976,7.88682746 C139.421219,7.98330241 139.300634,7.88682746 139.228282,7.5974026 L138.866525,6.05380334 C138.770056,5.74025974 138.866525,5.64378479 139.083579,5.54730983 C140.385905,5.0890538 141.905285,4.8961039 143.328197,4.8961039 C146.487543,4.8961039 147.958689,6.27087199 147.958689,8.94805195 L147.958689,15.3395176 C148.006923,15.7012987 147.982806,15.9666048 147.548697,16.1836735 Z M144.799343,11.528757 L143.062908,11.528757 C142.242925,11.528757 141.061185,11.6734694 141.061185,13.096475 C141.061185,14.109462 141.808817,14.471243 142.96644,14.471243 C143.30408,14.471243 144.220531,14.3988868 144.799343,14.1818182 L144.799343,11.528757 Z"></path>
                            <path d="M153.746804,16.7625232 L151.552144,16.7625232 C151.214504,16.7625232 151.069801,16.6419295 151.069801,16.3283859 L151.069801,5.64378479 C151.069801,5.33024119 151.214504,5.23376623 151.552144,5.23376623 L153.746804,5.23376623 C154.156795,5.23376623 154.253264,5.30612245 154.253264,5.64378479 L154.253264,9.40630798 L158.377296,9.40630798 L158.377296,5.64378479 C158.377296,5.33024119 158.497882,5.23376623 158.859639,5.23376623 L161.054299,5.23376623 C161.46429,5.23376623 161.536642,5.30612245 161.536642,5.64378479 L161.536642,16.3283859 C161.536642,16.7142857 161.46429,16.7625232 161.054299,16.7625232 L158.859639,16.7625232 C158.497882,16.7625232 158.377296,16.6419295 158.377296,16.3283859 L158.377296,11.9146568 L154.253264,11.9146568 L154.253264,16.3283859 C154.253264,16.690167 154.180912,16.7625232 153.746804,16.7625232 Z"></path>
                            <path d="M167.397108,16.7625232 L165.009511,16.7625232 C164.744222,16.7625232 164.623637,16.7142857 164.623637,16.4007421 L164.623637,5.54730983 C164.623637,5.23376623 164.744222,5.18552876 165.009511,5.18552876 L167.397108,5.18552876 C167.686514,5.18552876 167.782983,5.23376623 167.782983,5.54730983 L167.782983,9.38218924 L168.82002,9.38218924 C169.591769,9.38218924 170.242931,9.14100186 170.652923,7.9109462 L171.424672,5.49907236 C171.497023,5.23376623 171.665843,5.2096475 171.810546,5.2096475 L174.246378,5.2096475 C174.535783,5.2096475 174.535783,5.45083488 174.511666,5.57142857 L173.691683,8.44155844 C173.450512,9.33395176 173.016403,10.1057514 172.124069,10.4675325 L172.099952,10.5157699 C173.37816,10.8534323 173.7158,11.6011132 173.981089,12.541744 L175.090478,16.3525046 C175.114595,16.4730983 175.162829,16.7384045 174.801072,16.7384045 L172.268772,16.7384045 C172.148186,16.7384045 171.955249,16.7142857 171.907015,16.4730983 L170.869977,13.096475 C170.580572,12.1799629 169.929409,11.8423006 169.012957,11.8423006 L167.758865,11.8423006 L167.758865,16.4007421 C167.782983,16.7142857 167.686514,16.7625232 167.397108,16.7625232 Z"></path>
                        </g>
                    </g>
                </g>
            </g>
        </g>
    </g>
</svg>