<?xml version="1.0" encoding="UTF-8"?>
<svg width="43px" height="42px" viewBox="0 0 43 42" version="1.1" xmlns="http://www.w3.org/2000/svg" xmlns:xlink="http://www.w3.org/1999/xlink">
    <!-- Generator: Sketch 49.3 (51167) - http://www.bohemiancoding.com/sketch -->
    <title>Group 47</title>
    <desc>Created with Sketch.</desc>
    <defs></defs>
    <g id="Page-1" stroke="none" stroke-width="1" fill="none" fill-rule="evenodd">
        <g id="Desktop-HD-Copy-8" transform="translate(-421.000000, -345.000000)">
            <g id="шапка">
                <g id="Group-46" transform="translate(150.000000, 212.000000)">
                    <g id="Group-5" transform="translate(271.000000, 133.000000)">
                        <g id="Group-47">
                            <ellipse id="Path" fill="#FFFFFF" cx="21.4692737" cy="21" rx="21.4692737" ry="21"></ellipse>
                            <path d="M28.1727797,20.0828817 L19.1145897,13.2179718 C18.7821658,12.9667427 18.3408693,12.928907 17.9765094,13.1241393 C17.6092463,13.3178581 17.3798883,13.7113494 17.3798883,14.1366227 L17.3798883,27.8619021 C17.3798883,28.2917157 17.6092463,28.6836935 17.9765094,28.8774123 C18.1318342,28.9591374 18.3016752,29 18.4729679,29 C18.6965194,29 18.9229742,28.925842 19.1145897,28.7790395 L28.1727797,21.9201834 C28.4587514,21.7007363 28.6256892,21.3617284 28.6256892,21.0015325 C28.6271408,20.6352829 28.4558481,20.2977884 28.1727797,20.0828817 Z" id="Shape" fill="#E94280" fill-rule="nonzero"></path>
                        </g>
                    </g>
                </g>
            </g>
        </g>
    </g>
</svg>