<?xml version="1.0" encoding="UTF-8"?>
<svg width="62px" height="65px" viewBox="0 0 62 65" version="1.1" xmlns="http://www.w3.org/2000/svg" xmlns:xlink="http://www.w3.org/1999/xlink">
    <!-- Generator: Sketch 49.3 (51167) - http://www.bohemiancoding.com/sketch -->
    <title>bar-chart</title>
    <desc>Created with Sketch.</desc>
    <defs></defs>
    <g id="Page-1" stroke="none" stroke-width="1" fill="none" fill-rule="evenodd">
        <g id="Desktop-HD-Copy-8" transform="translate(-156.000000, -1472.000000)" fill="#E94280" fill-rule="nonzero">
            <g id="Group-18" transform="translate(0.000000, 1178.000000)">
                <g id="Group-22" transform="translate(156.000000, 294.000000)">
                    <g id="bar-chart">
                        <path d="M60.2048583,62.4623185 L57.4237321,62.4623185 L57.4237321,22.0543085 C57.4237321,20.1735059 55.8945121,18.6434109 54.0150678,18.6434109 L47.7987758,18.6434109 C45.9192047,18.6434109 44.3901115,20.1736328 44.3901115,22.0543085 L44.3901115,62.4623185 L37.3283106,62.4623185 L37.3283106,40.3622848 C37.3283106,38.4814822 35.7992174,36.9513871 33.9196463,36.9513871 L27.7033543,36.9513871 C25.8237832,36.9513871 24.29469,38.481609 24.29469,40.3622848 L24.29469,62.4623185 L17.2328891,62.4623185 L17.2328891,51.0168674 C17.2328891,49.1360648 15.7036691,47.6059697 13.8242248,47.6059697 L7.60780603,47.6059697 C5.7282349,47.6059697 4.19914171,49.1361917 4.19914171,51.0168674 L4.19914171,62.4623185 L1.26800994,62.4623185 C0.567688049,62.4623185 0,63.0303785 0,63.7311593 C0,64.43194 0.567688049,65 1.26800994,65 L60.2048583,65 C60.9051802,65 61.4728682,64.43194 61.4728682,63.7311593 C61.4728682,63.0303785 60.9051802,62.4623185 60.2048583,62.4623185 Z M14.6966156,62.4623185 L6.73503479,62.4623185 L6.73503479,51.0168674 C6.73503479,50.5353424 7.12646946,50.1436512 7.60767923,50.1436512 L13.8239712,50.1436512 C14.3051809,50.1436512 14.6966156,50.5353424 14.6966156,51.0168674 L14.6966156,62.4623185 Z M34.7921639,62.4623185 L26.8305831,62.4623185 L26.8305831,40.3622848 C26.8305831,39.8807597 27.2220178,39.4890686 27.7032275,39.4890686 L33.9195195,39.4890686 C34.4006024,39.4890686 34.7921639,39.8807597 34.7921639,40.3622848 L34.7921639,62.4623185 Z M54.8877122,62.4623185 L46.9261314,62.4623185 L46.9261314,22.0543085 C46.9261314,21.5727835 47.3175661,21.1810923 47.7987758,21.1810923 L54.0150678,21.1810923 C54.4962775,21.1810923 54.8877122,21.5727835 54.8877122,22.0543085 L54.8877122,62.4623185 Z" id="Shape"></path>
                        <path d="M57.43883,1.33221695 C57.4565079,0.986494235 57.3352877,0.634944023 57.0721389,0.370932981 C56.8089901,0.106921938 56.458588,-0.0148221171 56.1139943,0.00304043427 C56.0936647,0.00215364094 56.0735876,0 56.0528791,0 L48.4134818,0 C47.7160869,0 47.1507715,0.567167676 47.1507715,1.26684761 C47.1507715,1.96652755 47.7160869,2.53369522 48.4134818,2.53369522 L53.1305887,2.53369522 L40.6478134,15.0574973 L35.9404294,10.3346894 C35.7036712,10.0971555 35.3824377,9.96362978 35.0475669,9.96362978 C34.7126962,9.96362978 34.3914627,10.0971555 34.1547045,10.3346894 L11.4550876,33.108809 C10.9619992,33.6035129 10.9619992,34.4056809 11.4550876,34.9005115 C11.7016949,35.1476735 12.0248225,35.2713178 12.3479501,35.2713178 C12.6710776,35.2713178 12.9943315,35.1476735 13.2408125,34.9002582 L35.0475669,13.0219266 L39.754951,17.7447345 C40.2480393,18.2394385 41.0475875,18.2394385 41.5408021,17.7447345 L54.9164399,4.3253978 L54.9164399,8.60860957 C54.9164399,9.30828951 55.4817553,9.87545719 56.1791502,9.87545719 C56.8765451,9.87545719 57.4418605,9.30828951 57.4418605,8.60860957 L57.4418605,1.39353237 C57.4418605,1.37288276 57.4397139,1.35273988 57.43883,1.33221695 Z" id="Shape"></path>
                        <circle id="Oval" cx="7.81007752" cy="38.5465116" r="1.25968992"></circle>
                    </g>
                </g>
            </g>
        </g>
    </g>
</svg>